M48
METRIC,TZ
T1C0.635
T2C0.899
T3C1.001
T4C1.016
T5C1.499
T6C3.099
%
G90
G05
T1
X12.491Y10.523
X15.117Y14.871
X18.667Y23.691
X20.95Y37.071
X27.149Y37.071
X27.443Y13.772
X29.632Y23.691
X30.423Y7.905
X33.922Y23.635
X40.797Y5.028
X42.111Y12.5
X42.164Y7.276
X43.211Y8.792
X44.237Y10.29
X45.325Y14.523
X45.95Y31.441
X46.302Y12.403
X47.812Y36.84
X50.026Y13.745
X50.629Y29.83
X51.467Y27.768
X57.466Y13.396
X58.645Y14.59
X63.413Y23.702
X80.139Y34.611
X80.139Y25.453
T2
X4.844Y16.805
X4.844Y12.405
T3
X2.54Y40.64
X2.54Y38.1
X2.54Y34.29
X2.54Y31.75
X2.54Y29.21
X2.54Y26.67
X2.54Y24.13
X2.54Y21.59
X11.991Y47.335
X11.991Y42.835
X18.491Y47.335
X18.491Y42.835
X22.786Y47.335
X22.786Y42.835
X29.286Y47.335
X29.286Y42.835
X36.195Y46.355
X36.195Y43.815
X38.735Y46.355
X38.735Y43.815
X41.275Y46.355
X41.275Y43.815
T4
X12.446Y31.369
X12.446Y28.829
X12.446Y26.289
X12.446Y23.749
X12.446Y21.209
X12.446Y18.669
X14.986Y32.639
X14.986Y17.399
X17.526Y32.639
X17.526Y17.399
X20.066Y32.639
X20.066Y17.399
X22.606Y32.639
X22.606Y17.399
X23.876Y30.099
X25.146Y32.639
X25.146Y17.399
X26.416Y30.099
X27.686Y32.639
X27.686Y17.399
X30.226Y32.639
X30.226Y17.399
X32.766Y32.639
X32.766Y17.399
X34.036Y30.099
X35.306Y32.639
X35.306Y17.399
X36.576Y30.099
X37.846Y32.639
X37.846Y17.399
X40.386Y32.639
X40.386Y17.399
X42.926Y32.639
X42.926Y28.829
X42.926Y26.289
X42.926Y23.749
X42.926Y21.209
X42.926Y17.399
X52.705Y46.355
X52.705Y43.815
X55.245Y46.355
X55.245Y43.815
X57.785Y46.355
X57.785Y43.815
X60.325Y46.355
X60.325Y43.815
X62.865Y46.355
X62.865Y43.815
X65.405Y46.355
X65.405Y43.815
X74.295Y46.355
X76.835Y46.355
X79.375Y46.355
X81.915Y46.355
X84.455Y46.355
X86.995Y46.355
T5
X70.Y30.283
X70.Y9.785
T6
X4.Y46.
X4.Y4.
X96.Y46.
X96.Y4.
T0
M30
