G04 #@! TF.FileFunction,Legend,Bot*
%FSLAX46Y46*%
G04 Gerber Fmt 4.6, Leading zero omitted, Abs format (unit mm)*
G04 Created by KiCad (PCBNEW 4.0.0-stable) date 21/02/2016 17:37:39*
%MOMM*%
G01*
G04 APERTURE LIST*
%ADD10C,0.150000*%
%ADD11C,0.100000*%
%ADD12C,0.101600*%
%ADD13C,0.078740*%
%ADD14C,0.066040*%
%ADD15C,0.050800*%
%ADD16C,0.127000*%
G04 APERTURE END LIST*
D10*
D11*
X100000000Y0D02*
X0Y0D01*
X100000000Y50000000D02*
X100000000Y0D01*
X0Y50000000D02*
X100000000Y50000000D01*
X0Y0D02*
X0Y50000000D01*
D12*
X95127000Y34746000D02*
X95127000Y35254000D01*
X96651000Y35889000D02*
X96714500Y35889000D01*
X96968500Y34111000D02*
X96651000Y34111000D01*
X96714500Y35889000D02*
X96968500Y35889000D01*
X96968500Y34111000D02*
X96968500Y35889000D01*
X95127000Y35000000D02*
X94873000Y34746000D01*
X94873000Y34746000D02*
X94873000Y35254000D01*
X94873000Y35254000D02*
X95127000Y35000000D01*
D13*
X96067329Y33780800D02*
G75*
G03X96067329Y33780800I-305329J0D01*
G01*
X93984000Y35622300D02*
X96016000Y35622300D01*
X93984000Y34377700D02*
X96003300Y34377700D01*
X96016000Y35342900D02*
X96016000Y35622300D01*
X96003300Y34657100D02*
X96003300Y34403100D01*
X93984000Y35342900D02*
X93984000Y35622300D01*
X93984000Y34377700D02*
X93984000Y34657100D01*
D14*
X95497840Y35299720D02*
X95497840Y35624840D01*
X95497840Y34677420D02*
X95497840Y34827280D01*
X95497840Y35172720D02*
X95497840Y35322580D01*
X95497840Y34801880D02*
X95497840Y35198120D01*
X94502160Y35299720D02*
X94502160Y35624840D01*
X94502160Y34375160D02*
X94502160Y34700280D01*
X94502160Y35172720D02*
X94502160Y35322580D01*
X94502160Y34677420D02*
X94502160Y34827280D01*
X94502160Y34801880D02*
X94502160Y35198120D01*
X95497840Y34400560D02*
X95497840Y34700280D01*
D15*
X95856702Y34525020D02*
G75*
G03X95856702Y34525020I-71842J0D01*
G01*
D12*
X95998220Y34652020D02*
G75*
G02X95998220Y35347980I0J347980D01*
G01*
X94001780Y35347980D02*
G75*
G02X94001780Y34652020I0J-347980D01*
G01*
X7627000Y14746000D02*
X7627000Y15254000D01*
X9151000Y15889000D02*
X9214500Y15889000D01*
X9468500Y14111000D02*
X9151000Y14111000D01*
X9214500Y15889000D02*
X9468500Y15889000D01*
X9468500Y14111000D02*
X9468500Y15889000D01*
X7627000Y15000000D02*
X7373000Y14746000D01*
X7373000Y14746000D02*
X7373000Y15254000D01*
X7373000Y15254000D02*
X7627000Y15000000D01*
D13*
X8567329Y13780800D02*
G75*
G03X8567329Y13780800I-305329J0D01*
G01*
X6484000Y15622300D02*
X8516000Y15622300D01*
X6484000Y14377700D02*
X8503300Y14377700D01*
X8516000Y15342900D02*
X8516000Y15622300D01*
X8503300Y14657100D02*
X8503300Y14403100D01*
X6484000Y15342900D02*
X6484000Y15622300D01*
X6484000Y14377700D02*
X6484000Y14657100D01*
D14*
X7997840Y15299720D02*
X7997840Y15624840D01*
X7997840Y14677420D02*
X7997840Y14827280D01*
X7997840Y15172720D02*
X7997840Y15322580D01*
X7997840Y14801880D02*
X7997840Y15198120D01*
X7002160Y15299720D02*
X7002160Y15624840D01*
X7002160Y14375160D02*
X7002160Y14700280D01*
X7002160Y15172720D02*
X7002160Y15322580D01*
X7002160Y14677420D02*
X7002160Y14827280D01*
X7002160Y14801880D02*
X7002160Y15198120D01*
X7997840Y14400560D02*
X7997840Y14700280D01*
D15*
X8356702Y14525020D02*
G75*
G03X8356702Y14525020I-71842J0D01*
G01*
D12*
X8498220Y14652020D02*
G75*
G02X8498220Y15347980I0J347980D01*
G01*
X6501780Y15347980D02*
G75*
G02X6501780Y14652020I0J-347980D01*
G01*
X17627000Y14746000D02*
X17627000Y15254000D01*
X19151000Y15889000D02*
X19214500Y15889000D01*
X19468500Y14111000D02*
X19151000Y14111000D01*
X19214500Y15889000D02*
X19468500Y15889000D01*
X19468500Y14111000D02*
X19468500Y15889000D01*
X17627000Y15000000D02*
X17373000Y14746000D01*
X17373000Y14746000D02*
X17373000Y15254000D01*
X17373000Y15254000D02*
X17627000Y15000000D01*
D13*
X18567329Y13780800D02*
G75*
G03X18567329Y13780800I-305329J0D01*
G01*
X16484000Y15622300D02*
X18516000Y15622300D01*
X16484000Y14377700D02*
X18503300Y14377700D01*
X18516000Y15342900D02*
X18516000Y15622300D01*
X18503300Y14657100D02*
X18503300Y14403100D01*
X16484000Y15342900D02*
X16484000Y15622300D01*
X16484000Y14377700D02*
X16484000Y14657100D01*
D14*
X17997840Y15299720D02*
X17997840Y15624840D01*
X17997840Y14677420D02*
X17997840Y14827280D01*
X17997840Y15172720D02*
X17997840Y15322580D01*
X17997840Y14801880D02*
X17997840Y15198120D01*
X17002160Y15299720D02*
X17002160Y15624840D01*
X17002160Y14375160D02*
X17002160Y14700280D01*
X17002160Y15172720D02*
X17002160Y15322580D01*
X17002160Y14677420D02*
X17002160Y14827280D01*
X17002160Y14801880D02*
X17002160Y15198120D01*
X17997840Y14400560D02*
X17997840Y14700280D01*
D15*
X18356702Y14525020D02*
G75*
G03X18356702Y14525020I-71842J0D01*
G01*
D12*
X18498220Y14652020D02*
G75*
G02X18498220Y15347980I0J347980D01*
G01*
X16501780Y15347980D02*
G75*
G02X16501780Y14652020I0J-347980D01*
G01*
X27627000Y14746000D02*
X27627000Y15254000D01*
X29151000Y15889000D02*
X29214500Y15889000D01*
X29468500Y14111000D02*
X29151000Y14111000D01*
X29214500Y15889000D02*
X29468500Y15889000D01*
X29468500Y14111000D02*
X29468500Y15889000D01*
X27627000Y15000000D02*
X27373000Y14746000D01*
X27373000Y14746000D02*
X27373000Y15254000D01*
X27373000Y15254000D02*
X27627000Y15000000D01*
D13*
X28567329Y13780800D02*
G75*
G03X28567329Y13780800I-305329J0D01*
G01*
X26484000Y15622300D02*
X28516000Y15622300D01*
X26484000Y14377700D02*
X28503300Y14377700D01*
X28516000Y15342900D02*
X28516000Y15622300D01*
X28503300Y14657100D02*
X28503300Y14403100D01*
X26484000Y15342900D02*
X26484000Y15622300D01*
X26484000Y14377700D02*
X26484000Y14657100D01*
D14*
X27997840Y15299720D02*
X27997840Y15624840D01*
X27997840Y14677420D02*
X27997840Y14827280D01*
X27997840Y15172720D02*
X27997840Y15322580D01*
X27997840Y14801880D02*
X27997840Y15198120D01*
X27002160Y15299720D02*
X27002160Y15624840D01*
X27002160Y14375160D02*
X27002160Y14700280D01*
X27002160Y15172720D02*
X27002160Y15322580D01*
X27002160Y14677420D02*
X27002160Y14827280D01*
X27002160Y14801880D02*
X27002160Y15198120D01*
X27997840Y14400560D02*
X27997840Y14700280D01*
D15*
X28356702Y14525020D02*
G75*
G03X28356702Y14525020I-71842J0D01*
G01*
D12*
X28498220Y14652020D02*
G75*
G02X28498220Y15347980I0J347980D01*
G01*
X26501780Y15347980D02*
G75*
G02X26501780Y14652020I0J-347980D01*
G01*
X95127000Y14746000D02*
X95127000Y15254000D01*
X96651000Y15889000D02*
X96714500Y15889000D01*
X96968500Y14111000D02*
X96651000Y14111000D01*
X96714500Y15889000D02*
X96968500Y15889000D01*
X96968500Y14111000D02*
X96968500Y15889000D01*
X95127000Y15000000D02*
X94873000Y14746000D01*
X94873000Y14746000D02*
X94873000Y15254000D01*
X94873000Y15254000D02*
X95127000Y15000000D01*
D13*
X96067329Y13780800D02*
G75*
G03X96067329Y13780800I-305329J0D01*
G01*
X93984000Y15622300D02*
X96016000Y15622300D01*
X93984000Y14377700D02*
X96003300Y14377700D01*
X96016000Y15342900D02*
X96016000Y15622300D01*
X96003300Y14657100D02*
X96003300Y14403100D01*
X93984000Y15342900D02*
X93984000Y15622300D01*
X93984000Y14377700D02*
X93984000Y14657100D01*
D14*
X95497840Y15299720D02*
X95497840Y15624840D01*
X95497840Y14677420D02*
X95497840Y14827280D01*
X95497840Y15172720D02*
X95497840Y15322580D01*
X95497840Y14801880D02*
X95497840Y15198120D01*
X94502160Y15299720D02*
X94502160Y15624840D01*
X94502160Y14375160D02*
X94502160Y14700280D01*
X94502160Y15172720D02*
X94502160Y15322580D01*
X94502160Y14677420D02*
X94502160Y14827280D01*
X94502160Y14801880D02*
X94502160Y15198120D01*
X95497840Y14400560D02*
X95497840Y14700280D01*
D15*
X95856702Y14525020D02*
G75*
G03X95856702Y14525020I-71842J0D01*
G01*
D12*
X95998220Y14652020D02*
G75*
G02X95998220Y15347980I0J347980D01*
G01*
X94001780Y15347980D02*
G75*
G02X94001780Y14652020I0J-347980D01*
G01*
X7627000Y24746000D02*
X7627000Y25254000D01*
X9151000Y25889000D02*
X9214500Y25889000D01*
X9468500Y24111000D02*
X9151000Y24111000D01*
X9214500Y25889000D02*
X9468500Y25889000D01*
X9468500Y24111000D02*
X9468500Y25889000D01*
X7627000Y25000000D02*
X7373000Y24746000D01*
X7373000Y24746000D02*
X7373000Y25254000D01*
X7373000Y25254000D02*
X7627000Y25000000D01*
D13*
X8567329Y23780800D02*
G75*
G03X8567329Y23780800I-305329J0D01*
G01*
X6484000Y25622300D02*
X8516000Y25622300D01*
X6484000Y24377700D02*
X8503300Y24377700D01*
X8516000Y25342900D02*
X8516000Y25622300D01*
X8503300Y24657100D02*
X8503300Y24403100D01*
X6484000Y25342900D02*
X6484000Y25622300D01*
X6484000Y24377700D02*
X6484000Y24657100D01*
D14*
X7997840Y25299720D02*
X7997840Y25624840D01*
X7997840Y24677420D02*
X7997840Y24827280D01*
X7997840Y25172720D02*
X7997840Y25322580D01*
X7997840Y24801880D02*
X7997840Y25198120D01*
X7002160Y25299720D02*
X7002160Y25624840D01*
X7002160Y24375160D02*
X7002160Y24700280D01*
X7002160Y25172720D02*
X7002160Y25322580D01*
X7002160Y24677420D02*
X7002160Y24827280D01*
X7002160Y24801880D02*
X7002160Y25198120D01*
X7997840Y24400560D02*
X7997840Y24700280D01*
D15*
X8356702Y24525020D02*
G75*
G03X8356702Y24525020I-71842J0D01*
G01*
D12*
X8498220Y24652020D02*
G75*
G02X8498220Y25347980I0J347980D01*
G01*
X6501780Y25347980D02*
G75*
G02X6501780Y24652020I0J-347980D01*
G01*
X17627000Y24746000D02*
X17627000Y25254000D01*
X19151000Y25889000D02*
X19214500Y25889000D01*
X19468500Y24111000D02*
X19151000Y24111000D01*
X19214500Y25889000D02*
X19468500Y25889000D01*
X19468500Y24111000D02*
X19468500Y25889000D01*
X17627000Y25000000D02*
X17373000Y24746000D01*
X17373000Y24746000D02*
X17373000Y25254000D01*
X17373000Y25254000D02*
X17627000Y25000000D01*
D13*
X18567329Y23780800D02*
G75*
G03X18567329Y23780800I-305329J0D01*
G01*
X16484000Y25622300D02*
X18516000Y25622300D01*
X16484000Y24377700D02*
X18503300Y24377700D01*
X18516000Y25342900D02*
X18516000Y25622300D01*
X18503300Y24657100D02*
X18503300Y24403100D01*
X16484000Y25342900D02*
X16484000Y25622300D01*
X16484000Y24377700D02*
X16484000Y24657100D01*
D14*
X17997840Y25299720D02*
X17997840Y25624840D01*
X17997840Y24677420D02*
X17997840Y24827280D01*
X17997840Y25172720D02*
X17997840Y25322580D01*
X17997840Y24801880D02*
X17997840Y25198120D01*
X17002160Y25299720D02*
X17002160Y25624840D01*
X17002160Y24375160D02*
X17002160Y24700280D01*
X17002160Y25172720D02*
X17002160Y25322580D01*
X17002160Y24677420D02*
X17002160Y24827280D01*
X17002160Y24801880D02*
X17002160Y25198120D01*
X17997840Y24400560D02*
X17997840Y24700280D01*
D15*
X18356702Y24525020D02*
G75*
G03X18356702Y24525020I-71842J0D01*
G01*
D12*
X18498220Y24652020D02*
G75*
G02X18498220Y25347980I0J347980D01*
G01*
X16501780Y25347980D02*
G75*
G02X16501780Y24652020I0J-347980D01*
G01*
X27627000Y24746000D02*
X27627000Y25254000D01*
X29151000Y25889000D02*
X29214500Y25889000D01*
X29468500Y24111000D02*
X29151000Y24111000D01*
X29214500Y25889000D02*
X29468500Y25889000D01*
X29468500Y24111000D02*
X29468500Y25889000D01*
X27627000Y25000000D02*
X27373000Y24746000D01*
X27373000Y24746000D02*
X27373000Y25254000D01*
X27373000Y25254000D02*
X27627000Y25000000D01*
D13*
X28567329Y23780800D02*
G75*
G03X28567329Y23780800I-305329J0D01*
G01*
X26484000Y25622300D02*
X28516000Y25622300D01*
X26484000Y24377700D02*
X28503300Y24377700D01*
X28516000Y25342900D02*
X28516000Y25622300D01*
X28503300Y24657100D02*
X28503300Y24403100D01*
X26484000Y25342900D02*
X26484000Y25622300D01*
X26484000Y24377700D02*
X26484000Y24657100D01*
D14*
X27997840Y25299720D02*
X27997840Y25624840D01*
X27997840Y24677420D02*
X27997840Y24827280D01*
X27997840Y25172720D02*
X27997840Y25322580D01*
X27997840Y24801880D02*
X27997840Y25198120D01*
X27002160Y25299720D02*
X27002160Y25624840D01*
X27002160Y24375160D02*
X27002160Y24700280D01*
X27002160Y25172720D02*
X27002160Y25322580D01*
X27002160Y24677420D02*
X27002160Y24827280D01*
X27002160Y24801880D02*
X27002160Y25198120D01*
X27997840Y24400560D02*
X27997840Y24700280D01*
D15*
X28356702Y24525020D02*
G75*
G03X28356702Y24525020I-71842J0D01*
G01*
D12*
X28498220Y24652020D02*
G75*
G02X28498220Y25347980I0J347980D01*
G01*
X26501780Y25347980D02*
G75*
G02X26501780Y24652020I0J-347980D01*
G01*
X95127000Y24746000D02*
X95127000Y25254000D01*
X96651000Y25889000D02*
X96714500Y25889000D01*
X96968500Y24111000D02*
X96651000Y24111000D01*
X96714500Y25889000D02*
X96968500Y25889000D01*
X96968500Y24111000D02*
X96968500Y25889000D01*
X95127000Y25000000D02*
X94873000Y24746000D01*
X94873000Y24746000D02*
X94873000Y25254000D01*
X94873000Y25254000D02*
X95127000Y25000000D01*
D13*
X96067329Y23780800D02*
G75*
G03X96067329Y23780800I-305329J0D01*
G01*
X93984000Y25622300D02*
X96016000Y25622300D01*
X93984000Y24377700D02*
X96003300Y24377700D01*
X96016000Y25342900D02*
X96016000Y25622300D01*
X96003300Y24657100D02*
X96003300Y24403100D01*
X93984000Y25342900D02*
X93984000Y25622300D01*
X93984000Y24377700D02*
X93984000Y24657100D01*
D14*
X95497840Y25299720D02*
X95497840Y25624840D01*
X95497840Y24677420D02*
X95497840Y24827280D01*
X95497840Y25172720D02*
X95497840Y25322580D01*
X95497840Y24801880D02*
X95497840Y25198120D01*
X94502160Y25299720D02*
X94502160Y25624840D01*
X94502160Y24375160D02*
X94502160Y24700280D01*
X94502160Y25172720D02*
X94502160Y25322580D01*
X94502160Y24677420D02*
X94502160Y24827280D01*
X94502160Y24801880D02*
X94502160Y25198120D01*
X95497840Y24400560D02*
X95497840Y24700280D01*
D15*
X95856702Y24525020D02*
G75*
G03X95856702Y24525020I-71842J0D01*
G01*
D12*
X95998220Y24652020D02*
G75*
G02X95998220Y25347980I0J347980D01*
G01*
X94001780Y25347980D02*
G75*
G02X94001780Y24652020I0J-347980D01*
G01*
X7627000Y34746000D02*
X7627000Y35254000D01*
X9151000Y35889000D02*
X9214500Y35889000D01*
X9468500Y34111000D02*
X9151000Y34111000D01*
X9214500Y35889000D02*
X9468500Y35889000D01*
X9468500Y34111000D02*
X9468500Y35889000D01*
X7627000Y35000000D02*
X7373000Y34746000D01*
X7373000Y34746000D02*
X7373000Y35254000D01*
X7373000Y35254000D02*
X7627000Y35000000D01*
D13*
X8567329Y33780800D02*
G75*
G03X8567329Y33780800I-305329J0D01*
G01*
X6484000Y35622300D02*
X8516000Y35622300D01*
X6484000Y34377700D02*
X8503300Y34377700D01*
X8516000Y35342900D02*
X8516000Y35622300D01*
X8503300Y34657100D02*
X8503300Y34403100D01*
X6484000Y35342900D02*
X6484000Y35622300D01*
X6484000Y34377700D02*
X6484000Y34657100D01*
D14*
X7997840Y35299720D02*
X7997840Y35624840D01*
X7997840Y34677420D02*
X7997840Y34827280D01*
X7997840Y35172720D02*
X7997840Y35322580D01*
X7997840Y34801880D02*
X7997840Y35198120D01*
X7002160Y35299720D02*
X7002160Y35624840D01*
X7002160Y34375160D02*
X7002160Y34700280D01*
X7002160Y35172720D02*
X7002160Y35322580D01*
X7002160Y34677420D02*
X7002160Y34827280D01*
X7002160Y34801880D02*
X7002160Y35198120D01*
X7997840Y34400560D02*
X7997840Y34700280D01*
D15*
X8356702Y34525020D02*
G75*
G03X8356702Y34525020I-71842J0D01*
G01*
D12*
X8498220Y34652020D02*
G75*
G02X8498220Y35347980I0J347980D01*
G01*
X6501780Y35347980D02*
G75*
G02X6501780Y34652020I0J-347980D01*
G01*
X17627000Y34746000D02*
X17627000Y35254000D01*
X19151000Y35889000D02*
X19214500Y35889000D01*
X19468500Y34111000D02*
X19151000Y34111000D01*
X19214500Y35889000D02*
X19468500Y35889000D01*
X19468500Y34111000D02*
X19468500Y35889000D01*
X17627000Y35000000D02*
X17373000Y34746000D01*
X17373000Y34746000D02*
X17373000Y35254000D01*
X17373000Y35254000D02*
X17627000Y35000000D01*
D13*
X18567329Y33780800D02*
G75*
G03X18567329Y33780800I-305329J0D01*
G01*
X16484000Y35622300D02*
X18516000Y35622300D01*
X16484000Y34377700D02*
X18503300Y34377700D01*
X18516000Y35342900D02*
X18516000Y35622300D01*
X18503300Y34657100D02*
X18503300Y34403100D01*
X16484000Y35342900D02*
X16484000Y35622300D01*
X16484000Y34377700D02*
X16484000Y34657100D01*
D14*
X17997840Y35299720D02*
X17997840Y35624840D01*
X17997840Y34677420D02*
X17997840Y34827280D01*
X17997840Y35172720D02*
X17997840Y35322580D01*
X17997840Y34801880D02*
X17997840Y35198120D01*
X17002160Y35299720D02*
X17002160Y35624840D01*
X17002160Y34375160D02*
X17002160Y34700280D01*
X17002160Y35172720D02*
X17002160Y35322580D01*
X17002160Y34677420D02*
X17002160Y34827280D01*
X17002160Y34801880D02*
X17002160Y35198120D01*
X17997840Y34400560D02*
X17997840Y34700280D01*
D15*
X18356702Y34525020D02*
G75*
G03X18356702Y34525020I-71842J0D01*
G01*
D12*
X18498220Y34652020D02*
G75*
G02X18498220Y35347980I0J347980D01*
G01*
X16501780Y35347980D02*
G75*
G02X16501780Y34652020I0J-347980D01*
G01*
X27627000Y34746000D02*
X27627000Y35254000D01*
X29151000Y35889000D02*
X29214500Y35889000D01*
X29468500Y34111000D02*
X29151000Y34111000D01*
X29214500Y35889000D02*
X29468500Y35889000D01*
X29468500Y34111000D02*
X29468500Y35889000D01*
X27627000Y35000000D02*
X27373000Y34746000D01*
X27373000Y34746000D02*
X27373000Y35254000D01*
X27373000Y35254000D02*
X27627000Y35000000D01*
D13*
X28567329Y33780800D02*
G75*
G03X28567329Y33780800I-305329J0D01*
G01*
X26484000Y35622300D02*
X28516000Y35622300D01*
X26484000Y34377700D02*
X28503300Y34377700D01*
X28516000Y35342900D02*
X28516000Y35622300D01*
X28503300Y34657100D02*
X28503300Y34403100D01*
X26484000Y35342900D02*
X26484000Y35622300D01*
X26484000Y34377700D02*
X26484000Y34657100D01*
D14*
X27997840Y35299720D02*
X27997840Y35624840D01*
X27997840Y34677420D02*
X27997840Y34827280D01*
X27997840Y35172720D02*
X27997840Y35322580D01*
X27997840Y34801880D02*
X27997840Y35198120D01*
X27002160Y35299720D02*
X27002160Y35624840D01*
X27002160Y34375160D02*
X27002160Y34700280D01*
X27002160Y35172720D02*
X27002160Y35322580D01*
X27002160Y34677420D02*
X27002160Y34827280D01*
X27002160Y34801880D02*
X27002160Y35198120D01*
X27997840Y34400560D02*
X27997840Y34700280D01*
D15*
X28356702Y34525020D02*
G75*
G03X28356702Y34525020I-71842J0D01*
G01*
D12*
X28498220Y34652020D02*
G75*
G02X28498220Y35347980I0J347980D01*
G01*
X26501780Y35347980D02*
G75*
G02X26501780Y34652020I0J-347980D01*
G01*
X40127000Y14746000D02*
X40127000Y15254000D01*
X39873000Y14746000D02*
X40127000Y15000000D01*
X40127000Y15000000D02*
X39873000Y15254000D01*
X39873000Y15254000D02*
X39873000Y14746000D01*
D13*
X41067329Y13780800D02*
G75*
G03X41067329Y13780800I-305329J0D01*
G01*
X38984000Y15622300D02*
X41016000Y15622300D01*
X38984000Y14377700D02*
X41003300Y14377700D01*
X41016000Y15342900D02*
X41016000Y15622300D01*
X41003300Y14657100D02*
X41003300Y14403100D01*
X38984000Y15342900D02*
X38984000Y15622300D01*
X38984000Y14377700D02*
X38984000Y14657100D01*
D14*
X40497840Y15299720D02*
X40497840Y15624840D01*
X40497840Y14677420D02*
X40497840Y14827280D01*
X40497840Y15172720D02*
X40497840Y15322580D01*
X40497840Y14801880D02*
X40497840Y15198120D01*
X39502160Y15299720D02*
X39502160Y15624840D01*
X39502160Y14375160D02*
X39502160Y14700280D01*
X39502160Y15172720D02*
X39502160Y15322580D01*
X39502160Y14677420D02*
X39502160Y14827280D01*
X39502160Y14801880D02*
X39502160Y15198120D01*
X40497840Y14400560D02*
X40497840Y14700280D01*
D15*
X40856702Y14525020D02*
G75*
G03X40856702Y14525020I-71842J0D01*
G01*
D12*
X40998220Y14652020D02*
G75*
G02X40998220Y15347980I0J347980D01*
G01*
X39001780Y15347980D02*
G75*
G02X39001780Y14652020I0J-347980D01*
G01*
X50127000Y14746000D02*
X50127000Y15254000D01*
X49873000Y14746000D02*
X50127000Y15000000D01*
X50127000Y15000000D02*
X49873000Y15254000D01*
X49873000Y15254000D02*
X49873000Y14746000D01*
D13*
X51067329Y13780800D02*
G75*
G03X51067329Y13780800I-305329J0D01*
G01*
X48984000Y15622300D02*
X51016000Y15622300D01*
X48984000Y14377700D02*
X51003300Y14377700D01*
X51016000Y15342900D02*
X51016000Y15622300D01*
X51003300Y14657100D02*
X51003300Y14403100D01*
X48984000Y15342900D02*
X48984000Y15622300D01*
X48984000Y14377700D02*
X48984000Y14657100D01*
D14*
X50497840Y15299720D02*
X50497840Y15624840D01*
X50497840Y14677420D02*
X50497840Y14827280D01*
X50497840Y15172720D02*
X50497840Y15322580D01*
X50497840Y14801880D02*
X50497840Y15198120D01*
X49502160Y15299720D02*
X49502160Y15624840D01*
X49502160Y14375160D02*
X49502160Y14700280D01*
X49502160Y15172720D02*
X49502160Y15322580D01*
X49502160Y14677420D02*
X49502160Y14827280D01*
X49502160Y14801880D02*
X49502160Y15198120D01*
X50497840Y14400560D02*
X50497840Y14700280D01*
D15*
X50856702Y14525020D02*
G75*
G03X50856702Y14525020I-71842J0D01*
G01*
D12*
X50998220Y14652020D02*
G75*
G02X50998220Y15347980I0J347980D01*
G01*
X49001780Y15347980D02*
G75*
G02X49001780Y14652020I0J-347980D01*
G01*
X40127000Y24746000D02*
X40127000Y25254000D01*
X39873000Y24746000D02*
X40127000Y25000000D01*
X40127000Y25000000D02*
X39873000Y25254000D01*
X39873000Y25254000D02*
X39873000Y24746000D01*
D13*
X41067329Y23780800D02*
G75*
G03X41067329Y23780800I-305329J0D01*
G01*
X38984000Y25622300D02*
X41016000Y25622300D01*
X38984000Y24377700D02*
X41003300Y24377700D01*
X41016000Y25342900D02*
X41016000Y25622300D01*
X41003300Y24657100D02*
X41003300Y24403100D01*
X38984000Y25342900D02*
X38984000Y25622300D01*
X38984000Y24377700D02*
X38984000Y24657100D01*
D14*
X40497840Y25299720D02*
X40497840Y25624840D01*
X40497840Y24677420D02*
X40497840Y24827280D01*
X40497840Y25172720D02*
X40497840Y25322580D01*
X40497840Y24801880D02*
X40497840Y25198120D01*
X39502160Y25299720D02*
X39502160Y25624840D01*
X39502160Y24375160D02*
X39502160Y24700280D01*
X39502160Y25172720D02*
X39502160Y25322580D01*
X39502160Y24677420D02*
X39502160Y24827280D01*
X39502160Y24801880D02*
X39502160Y25198120D01*
X40497840Y24400560D02*
X40497840Y24700280D01*
D15*
X40856702Y24525020D02*
G75*
G03X40856702Y24525020I-71842J0D01*
G01*
D12*
X40998220Y24652020D02*
G75*
G02X40998220Y25347980I0J347980D01*
G01*
X39001780Y25347980D02*
G75*
G02X39001780Y24652020I0J-347980D01*
G01*
X50127000Y24746000D02*
X50127000Y25254000D01*
X49873000Y24746000D02*
X50127000Y25000000D01*
X50127000Y25000000D02*
X49873000Y25254000D01*
X49873000Y25254000D02*
X49873000Y24746000D01*
D13*
X51067329Y23780800D02*
G75*
G03X51067329Y23780800I-305329J0D01*
G01*
X48984000Y25622300D02*
X51016000Y25622300D01*
X48984000Y24377700D02*
X51003300Y24377700D01*
X51016000Y25342900D02*
X51016000Y25622300D01*
X51003300Y24657100D02*
X51003300Y24403100D01*
X48984000Y25342900D02*
X48984000Y25622300D01*
X48984000Y24377700D02*
X48984000Y24657100D01*
D14*
X50497840Y25299720D02*
X50497840Y25624840D01*
X50497840Y24677420D02*
X50497840Y24827280D01*
X50497840Y25172720D02*
X50497840Y25322580D01*
X50497840Y24801880D02*
X50497840Y25198120D01*
X49502160Y25299720D02*
X49502160Y25624840D01*
X49502160Y24375160D02*
X49502160Y24700280D01*
X49502160Y25172720D02*
X49502160Y25322580D01*
X49502160Y24677420D02*
X49502160Y24827280D01*
X49502160Y24801880D02*
X49502160Y25198120D01*
X50497840Y24400560D02*
X50497840Y24700280D01*
D15*
X50856702Y24525020D02*
G75*
G03X50856702Y24525020I-71842J0D01*
G01*
D12*
X50998220Y24652020D02*
G75*
G02X50998220Y25347980I0J347980D01*
G01*
X49001780Y25347980D02*
G75*
G02X49001780Y24652020I0J-347980D01*
G01*
X40127000Y34746000D02*
X40127000Y35254000D01*
X39873000Y34746000D02*
X40127000Y35000000D01*
X40127000Y35000000D02*
X39873000Y35254000D01*
X39873000Y35254000D02*
X39873000Y34746000D01*
D13*
X41067329Y33780800D02*
G75*
G03X41067329Y33780800I-305329J0D01*
G01*
X38984000Y35622300D02*
X41016000Y35622300D01*
X38984000Y34377700D02*
X41003300Y34377700D01*
X41016000Y35342900D02*
X41016000Y35622300D01*
X41003300Y34657100D02*
X41003300Y34403100D01*
X38984000Y35342900D02*
X38984000Y35622300D01*
X38984000Y34377700D02*
X38984000Y34657100D01*
D14*
X40497840Y35299720D02*
X40497840Y35624840D01*
X40497840Y34677420D02*
X40497840Y34827280D01*
X40497840Y35172720D02*
X40497840Y35322580D01*
X40497840Y34801880D02*
X40497840Y35198120D01*
X39502160Y35299720D02*
X39502160Y35624840D01*
X39502160Y34375160D02*
X39502160Y34700280D01*
X39502160Y35172720D02*
X39502160Y35322580D01*
X39502160Y34677420D02*
X39502160Y34827280D01*
X39502160Y34801880D02*
X39502160Y35198120D01*
X40497840Y34400560D02*
X40497840Y34700280D01*
D15*
X40856702Y34525020D02*
G75*
G03X40856702Y34525020I-71842J0D01*
G01*
D12*
X40998220Y34652020D02*
G75*
G02X40998220Y35347980I0J347980D01*
G01*
X39001780Y35347980D02*
G75*
G02X39001780Y34652020I0J-347980D01*
G01*
X50127000Y34746000D02*
X50127000Y35254000D01*
X49873000Y34746000D02*
X50127000Y35000000D01*
X50127000Y35000000D02*
X49873000Y35254000D01*
X49873000Y35254000D02*
X49873000Y34746000D01*
D13*
X51067329Y33780800D02*
G75*
G03X51067329Y33780800I-305329J0D01*
G01*
X48984000Y35622300D02*
X51016000Y35622300D01*
X48984000Y34377700D02*
X51003300Y34377700D01*
X51016000Y35342900D02*
X51016000Y35622300D01*
X51003300Y34657100D02*
X51003300Y34403100D01*
X48984000Y35342900D02*
X48984000Y35622300D01*
X48984000Y34377700D02*
X48984000Y34657100D01*
D14*
X50497840Y35299720D02*
X50497840Y35624840D01*
X50497840Y34677420D02*
X50497840Y34827280D01*
X50497840Y35172720D02*
X50497840Y35322580D01*
X50497840Y34801880D02*
X50497840Y35198120D01*
X49502160Y35299720D02*
X49502160Y35624840D01*
X49502160Y34375160D02*
X49502160Y34700280D01*
X49502160Y35172720D02*
X49502160Y35322580D01*
X49502160Y34677420D02*
X49502160Y34827280D01*
X49502160Y34801880D02*
X49502160Y35198120D01*
X50497840Y34400560D02*
X50497840Y34700280D01*
D15*
X50856702Y34525020D02*
G75*
G03X50856702Y34525020I-71842J0D01*
G01*
D12*
X50998220Y34652020D02*
G75*
G02X50998220Y35347980I0J347980D01*
G01*
X49001780Y35347980D02*
G75*
G02X49001780Y34652020I0J-347980D01*
G01*
X82627000Y35000000D02*
X82373000Y34746000D01*
X82373000Y34746000D02*
X82373000Y35127000D01*
X82373000Y35127000D02*
X82373000Y35254000D01*
X82373000Y35254000D02*
X82627000Y35000000D01*
D13*
X83567329Y33780800D02*
G75*
G03X83567329Y33780800I-305329J0D01*
G01*
X81484000Y35622300D02*
X83516000Y35622300D01*
X81484000Y34377700D02*
X83503300Y34377700D01*
X83516000Y35342900D02*
X83516000Y35622300D01*
X83503300Y34657100D02*
X83503300Y34403100D01*
X81484000Y35342900D02*
X81484000Y35622300D01*
X81484000Y34377700D02*
X81484000Y34657100D01*
D14*
X82997840Y35299720D02*
X82997840Y35624840D01*
X82997840Y34677420D02*
X82997840Y34827280D01*
X82997840Y35172720D02*
X82997840Y35322580D01*
X82997840Y34801880D02*
X82997840Y35198120D01*
X82002160Y35299720D02*
X82002160Y35624840D01*
X82002160Y34375160D02*
X82002160Y34700280D01*
X82002160Y35172720D02*
X82002160Y35322580D01*
X82002160Y34677420D02*
X82002160Y34827280D01*
X82002160Y34801880D02*
X82002160Y35198120D01*
X82997840Y34400560D02*
X82997840Y34700280D01*
D15*
X83356702Y34525020D02*
G75*
G03X83356702Y34525020I-71842J0D01*
G01*
D12*
X83498220Y34652020D02*
G75*
G02X83498220Y35347980I0J347980D01*
G01*
X81501780Y35347980D02*
G75*
G02X81501780Y34652020I0J-347980D01*
G01*
X72627000Y35000000D02*
X72373000Y34746000D01*
X72373000Y34746000D02*
X72373000Y35127000D01*
X72373000Y35127000D02*
X72373000Y35254000D01*
X72373000Y35254000D02*
X72627000Y35000000D01*
D13*
X73567329Y33780800D02*
G75*
G03X73567329Y33780800I-305329J0D01*
G01*
X71484000Y35622300D02*
X73516000Y35622300D01*
X71484000Y34377700D02*
X73503300Y34377700D01*
X73516000Y35342900D02*
X73516000Y35622300D01*
X73503300Y34657100D02*
X73503300Y34403100D01*
X71484000Y35342900D02*
X71484000Y35622300D01*
X71484000Y34377700D02*
X71484000Y34657100D01*
D14*
X72997840Y35299720D02*
X72997840Y35624840D01*
X72997840Y34677420D02*
X72997840Y34827280D01*
X72997840Y35172720D02*
X72997840Y35322580D01*
X72997840Y34801880D02*
X72997840Y35198120D01*
X72002160Y35299720D02*
X72002160Y35624840D01*
X72002160Y34375160D02*
X72002160Y34700280D01*
X72002160Y35172720D02*
X72002160Y35322580D01*
X72002160Y34677420D02*
X72002160Y34827280D01*
X72002160Y34801880D02*
X72002160Y35198120D01*
X72997840Y34400560D02*
X72997840Y34700280D01*
D15*
X73356702Y34525020D02*
G75*
G03X73356702Y34525020I-71842J0D01*
G01*
D12*
X73498220Y34652020D02*
G75*
G02X73498220Y35347980I0J347980D01*
G01*
X71501780Y35347980D02*
G75*
G02X71501780Y34652020I0J-347980D01*
G01*
X62627000Y35000000D02*
X62373000Y34746000D01*
X62373000Y34746000D02*
X62373000Y35127000D01*
X62373000Y35127000D02*
X62373000Y35254000D01*
X62373000Y35254000D02*
X62627000Y35000000D01*
D13*
X63567329Y33780800D02*
G75*
G03X63567329Y33780800I-305329J0D01*
G01*
X61484000Y35622300D02*
X63516000Y35622300D01*
X61484000Y34377700D02*
X63503300Y34377700D01*
X63516000Y35342900D02*
X63516000Y35622300D01*
X63503300Y34657100D02*
X63503300Y34403100D01*
X61484000Y35342900D02*
X61484000Y35622300D01*
X61484000Y34377700D02*
X61484000Y34657100D01*
D14*
X62997840Y35299720D02*
X62997840Y35624840D01*
X62997840Y34677420D02*
X62997840Y34827280D01*
X62997840Y35172720D02*
X62997840Y35322580D01*
X62997840Y34801880D02*
X62997840Y35198120D01*
X62002160Y35299720D02*
X62002160Y35624840D01*
X62002160Y34375160D02*
X62002160Y34700280D01*
X62002160Y35172720D02*
X62002160Y35322580D01*
X62002160Y34677420D02*
X62002160Y34827280D01*
X62002160Y34801880D02*
X62002160Y35198120D01*
X62997840Y34400560D02*
X62997840Y34700280D01*
D15*
X63356702Y34525020D02*
G75*
G03X63356702Y34525020I-71842J0D01*
G01*
D12*
X63498220Y34652020D02*
G75*
G02X63498220Y35347980I0J347980D01*
G01*
X61501780Y35347980D02*
G75*
G02X61501780Y34652020I0J-347980D01*
G01*
X82627000Y25000000D02*
X82373000Y24746000D01*
X82373000Y24746000D02*
X82373000Y25127000D01*
X82373000Y25127000D02*
X82373000Y25254000D01*
X82373000Y25254000D02*
X82627000Y25000000D01*
D13*
X83567329Y23780800D02*
G75*
G03X83567329Y23780800I-305329J0D01*
G01*
X81484000Y25622300D02*
X83516000Y25622300D01*
X81484000Y24377700D02*
X83503300Y24377700D01*
X83516000Y25342900D02*
X83516000Y25622300D01*
X83503300Y24657100D02*
X83503300Y24403100D01*
X81484000Y25342900D02*
X81484000Y25622300D01*
X81484000Y24377700D02*
X81484000Y24657100D01*
D14*
X82997840Y25299720D02*
X82997840Y25624840D01*
X82997840Y24677420D02*
X82997840Y24827280D01*
X82997840Y25172720D02*
X82997840Y25322580D01*
X82997840Y24801880D02*
X82997840Y25198120D01*
X82002160Y25299720D02*
X82002160Y25624840D01*
X82002160Y24375160D02*
X82002160Y24700280D01*
X82002160Y25172720D02*
X82002160Y25322580D01*
X82002160Y24677420D02*
X82002160Y24827280D01*
X82002160Y24801880D02*
X82002160Y25198120D01*
X82997840Y24400560D02*
X82997840Y24700280D01*
D15*
X83356702Y24525020D02*
G75*
G03X83356702Y24525020I-71842J0D01*
G01*
D12*
X83498220Y24652020D02*
G75*
G02X83498220Y25347980I0J347980D01*
G01*
X81501780Y25347980D02*
G75*
G02X81501780Y24652020I0J-347980D01*
G01*
X72627000Y25000000D02*
X72373000Y24746000D01*
X72373000Y24746000D02*
X72373000Y25127000D01*
X72373000Y25127000D02*
X72373000Y25254000D01*
X72373000Y25254000D02*
X72627000Y25000000D01*
D13*
X73567329Y23780800D02*
G75*
G03X73567329Y23780800I-305329J0D01*
G01*
X71484000Y25622300D02*
X73516000Y25622300D01*
X71484000Y24377700D02*
X73503300Y24377700D01*
X73516000Y25342900D02*
X73516000Y25622300D01*
X73503300Y24657100D02*
X73503300Y24403100D01*
X71484000Y25342900D02*
X71484000Y25622300D01*
X71484000Y24377700D02*
X71484000Y24657100D01*
D14*
X72997840Y25299720D02*
X72997840Y25624840D01*
X72997840Y24677420D02*
X72997840Y24827280D01*
X72997840Y25172720D02*
X72997840Y25322580D01*
X72997840Y24801880D02*
X72997840Y25198120D01*
X72002160Y25299720D02*
X72002160Y25624840D01*
X72002160Y24375160D02*
X72002160Y24700280D01*
X72002160Y25172720D02*
X72002160Y25322580D01*
X72002160Y24677420D02*
X72002160Y24827280D01*
X72002160Y24801880D02*
X72002160Y25198120D01*
X72997840Y24400560D02*
X72997840Y24700280D01*
D15*
X73356702Y24525020D02*
G75*
G03X73356702Y24525020I-71842J0D01*
G01*
D12*
X73498220Y24652020D02*
G75*
G02X73498220Y25347980I0J347980D01*
G01*
X71501780Y25347980D02*
G75*
G02X71501780Y24652020I0J-347980D01*
G01*
X62627000Y25000000D02*
X62373000Y24746000D01*
X62373000Y24746000D02*
X62373000Y25127000D01*
X62373000Y25127000D02*
X62373000Y25254000D01*
X62373000Y25254000D02*
X62627000Y25000000D01*
D13*
X63567329Y23780800D02*
G75*
G03X63567329Y23780800I-305329J0D01*
G01*
X61484000Y25622300D02*
X63516000Y25622300D01*
X61484000Y24377700D02*
X63503300Y24377700D01*
X63516000Y25342900D02*
X63516000Y25622300D01*
X63503300Y24657100D02*
X63503300Y24403100D01*
X61484000Y25342900D02*
X61484000Y25622300D01*
X61484000Y24377700D02*
X61484000Y24657100D01*
D14*
X62997840Y25299720D02*
X62997840Y25624840D01*
X62997840Y24677420D02*
X62997840Y24827280D01*
X62997840Y25172720D02*
X62997840Y25322580D01*
X62997840Y24801880D02*
X62997840Y25198120D01*
X62002160Y25299720D02*
X62002160Y25624840D01*
X62002160Y24375160D02*
X62002160Y24700280D01*
X62002160Y25172720D02*
X62002160Y25322580D01*
X62002160Y24677420D02*
X62002160Y24827280D01*
X62002160Y24801880D02*
X62002160Y25198120D01*
X62997840Y24400560D02*
X62997840Y24700280D01*
D15*
X63356702Y24525020D02*
G75*
G03X63356702Y24525020I-71842J0D01*
G01*
D12*
X63498220Y24652020D02*
G75*
G02X63498220Y25347980I0J347980D01*
G01*
X61501780Y25347980D02*
G75*
G02X61501780Y24652020I0J-347980D01*
G01*
X82627000Y15000000D02*
X82373000Y14746000D01*
X82373000Y14746000D02*
X82373000Y15127000D01*
X82373000Y15127000D02*
X82373000Y15254000D01*
X82373000Y15254000D02*
X82627000Y15000000D01*
D13*
X83567329Y13780800D02*
G75*
G03X83567329Y13780800I-305329J0D01*
G01*
X81484000Y15622300D02*
X83516000Y15622300D01*
X81484000Y14377700D02*
X83503300Y14377700D01*
X83516000Y15342900D02*
X83516000Y15622300D01*
X83503300Y14657100D02*
X83503300Y14403100D01*
X81484000Y15342900D02*
X81484000Y15622300D01*
X81484000Y14377700D02*
X81484000Y14657100D01*
D14*
X82997840Y15299720D02*
X82997840Y15624840D01*
X82997840Y14677420D02*
X82997840Y14827280D01*
X82997840Y15172720D02*
X82997840Y15322580D01*
X82997840Y14801880D02*
X82997840Y15198120D01*
X82002160Y15299720D02*
X82002160Y15624840D01*
X82002160Y14375160D02*
X82002160Y14700280D01*
X82002160Y15172720D02*
X82002160Y15322580D01*
X82002160Y14677420D02*
X82002160Y14827280D01*
X82002160Y14801880D02*
X82002160Y15198120D01*
X82997840Y14400560D02*
X82997840Y14700280D01*
D15*
X83356702Y14525020D02*
G75*
G03X83356702Y14525020I-71842J0D01*
G01*
D12*
X83498220Y14652020D02*
G75*
G02X83498220Y15347980I0J347980D01*
G01*
X81501780Y15347980D02*
G75*
G02X81501780Y14652020I0J-347980D01*
G01*
X72627000Y15000000D02*
X72373000Y14746000D01*
X72373000Y14746000D02*
X72373000Y15127000D01*
X72373000Y15127000D02*
X72373000Y15254000D01*
X72373000Y15254000D02*
X72627000Y15000000D01*
D13*
X73567329Y13780800D02*
G75*
G03X73567329Y13780800I-305329J0D01*
G01*
X71484000Y15622300D02*
X73516000Y15622300D01*
X71484000Y14377700D02*
X73503300Y14377700D01*
X73516000Y15342900D02*
X73516000Y15622300D01*
X73503300Y14657100D02*
X73503300Y14403100D01*
X71484000Y15342900D02*
X71484000Y15622300D01*
X71484000Y14377700D02*
X71484000Y14657100D01*
D14*
X72997840Y15299720D02*
X72997840Y15624840D01*
X72997840Y14677420D02*
X72997840Y14827280D01*
X72997840Y15172720D02*
X72997840Y15322580D01*
X72997840Y14801880D02*
X72997840Y15198120D01*
X72002160Y15299720D02*
X72002160Y15624840D01*
X72002160Y14375160D02*
X72002160Y14700280D01*
X72002160Y15172720D02*
X72002160Y15322580D01*
X72002160Y14677420D02*
X72002160Y14827280D01*
X72002160Y14801880D02*
X72002160Y15198120D01*
X72997840Y14400560D02*
X72997840Y14700280D01*
D15*
X73356702Y14525020D02*
G75*
G03X73356702Y14525020I-71842J0D01*
G01*
D12*
X73498220Y14652020D02*
G75*
G02X73498220Y15347980I0J347980D01*
G01*
X71501780Y15347980D02*
G75*
G02X71501780Y14652020I0J-347980D01*
G01*
X62627000Y15000000D02*
X62373000Y14746000D01*
X62373000Y14746000D02*
X62373000Y15127000D01*
X62373000Y15127000D02*
X62373000Y15254000D01*
X62373000Y15254000D02*
X62627000Y15000000D01*
D13*
X63567329Y13780800D02*
G75*
G03X63567329Y13780800I-305329J0D01*
G01*
X61484000Y15622300D02*
X63516000Y15622300D01*
X61484000Y14377700D02*
X63503300Y14377700D01*
X63516000Y15342900D02*
X63516000Y15622300D01*
X63503300Y14657100D02*
X63503300Y14403100D01*
X61484000Y15342900D02*
X61484000Y15622300D01*
X61484000Y14377700D02*
X61484000Y14657100D01*
D14*
X62997840Y15299720D02*
X62997840Y15624840D01*
X62997840Y14677420D02*
X62997840Y14827280D01*
X62997840Y15172720D02*
X62997840Y15322580D01*
X62997840Y14801880D02*
X62997840Y15198120D01*
X62002160Y15299720D02*
X62002160Y15624840D01*
X62002160Y14375160D02*
X62002160Y14700280D01*
X62002160Y15172720D02*
X62002160Y15322580D01*
X62002160Y14677420D02*
X62002160Y14827280D01*
X62002160Y14801880D02*
X62002160Y15198120D01*
X62997840Y14400560D02*
X62997840Y14700280D01*
D15*
X63356702Y14525020D02*
G75*
G03X63356702Y14525020I-71842J0D01*
G01*
D12*
X63498220Y14652020D02*
G75*
G02X63498220Y15347980I0J347980D01*
G01*
X61501780Y15347980D02*
G75*
G02X61501780Y14652020I0J-347980D01*
G01*
D16*
X95562428Y36052286D02*
X95562428Y36814286D01*
X95381000Y36814286D01*
X95272143Y36778000D01*
X95199571Y36705429D01*
X95163286Y36632857D01*
X95127000Y36487714D01*
X95127000Y36378857D01*
X95163286Y36233714D01*
X95199571Y36161143D01*
X95272143Y36088571D01*
X95381000Y36052286D01*
X95562428Y36052286D01*
X94401286Y36052286D02*
X94836714Y36052286D01*
X94619000Y36052286D02*
X94619000Y36814286D01*
X94691571Y36705429D01*
X94764143Y36632857D01*
X94836714Y36596571D01*
X8425285Y16052286D02*
X8425285Y16814286D01*
X8243857Y16814286D01*
X8135000Y16778000D01*
X8062428Y16705429D01*
X8026143Y16632857D01*
X7989857Y16487714D01*
X7989857Y16378857D01*
X8026143Y16233714D01*
X8062428Y16161143D01*
X8135000Y16088571D01*
X8243857Y16052286D01*
X8425285Y16052286D01*
X7699571Y16741714D02*
X7663285Y16778000D01*
X7590714Y16814286D01*
X7409285Y16814286D01*
X7336714Y16778000D01*
X7300428Y16741714D01*
X7264143Y16669143D01*
X7264143Y16596571D01*
X7300428Y16487714D01*
X7735857Y16052286D01*
X7264143Y16052286D01*
X7010143Y16814286D02*
X6502143Y16814286D01*
X6828714Y16052286D01*
X18425285Y16052286D02*
X18425285Y16814286D01*
X18243857Y16814286D01*
X18135000Y16778000D01*
X18062428Y16705429D01*
X18026143Y16632857D01*
X17989857Y16487714D01*
X17989857Y16378857D01*
X18026143Y16233714D01*
X18062428Y16161143D01*
X18135000Y16088571D01*
X18243857Y16052286D01*
X18425285Y16052286D01*
X17699571Y16741714D02*
X17663285Y16778000D01*
X17590714Y16814286D01*
X17409285Y16814286D01*
X17336714Y16778000D01*
X17300428Y16741714D01*
X17264143Y16669143D01*
X17264143Y16596571D01*
X17300428Y16487714D01*
X17735857Y16052286D01*
X17264143Y16052286D01*
X16611000Y16814286D02*
X16756143Y16814286D01*
X16828714Y16778000D01*
X16865000Y16741714D01*
X16937571Y16632857D01*
X16973857Y16487714D01*
X16973857Y16197429D01*
X16937571Y16124857D01*
X16901286Y16088571D01*
X16828714Y16052286D01*
X16683571Y16052286D01*
X16611000Y16088571D01*
X16574714Y16124857D01*
X16538429Y16197429D01*
X16538429Y16378857D01*
X16574714Y16451429D01*
X16611000Y16487714D01*
X16683571Y16524000D01*
X16828714Y16524000D01*
X16901286Y16487714D01*
X16937571Y16451429D01*
X16973857Y16378857D01*
X28425285Y16052286D02*
X28425285Y16814286D01*
X28243857Y16814286D01*
X28135000Y16778000D01*
X28062428Y16705429D01*
X28026143Y16632857D01*
X27989857Y16487714D01*
X27989857Y16378857D01*
X28026143Y16233714D01*
X28062428Y16161143D01*
X28135000Y16088571D01*
X28243857Y16052286D01*
X28425285Y16052286D01*
X27699571Y16741714D02*
X27663285Y16778000D01*
X27590714Y16814286D01*
X27409285Y16814286D01*
X27336714Y16778000D01*
X27300428Y16741714D01*
X27264143Y16669143D01*
X27264143Y16596571D01*
X27300428Y16487714D01*
X27735857Y16052286D01*
X27264143Y16052286D01*
X26574714Y16814286D02*
X26937571Y16814286D01*
X26973857Y16451429D01*
X26937571Y16487714D01*
X26865000Y16524000D01*
X26683571Y16524000D01*
X26611000Y16487714D01*
X26574714Y16451429D01*
X26538429Y16378857D01*
X26538429Y16197429D01*
X26574714Y16124857D01*
X26611000Y16088571D01*
X26683571Y16052286D01*
X26865000Y16052286D01*
X26937571Y16088571D01*
X26973857Y16124857D01*
X95925285Y16052286D02*
X95925285Y16814286D01*
X95743857Y16814286D01*
X95635000Y16778000D01*
X95562428Y16705429D01*
X95526143Y16632857D01*
X95489857Y16487714D01*
X95489857Y16378857D01*
X95526143Y16233714D01*
X95562428Y16161143D01*
X95635000Y16088571D01*
X95743857Y16052286D01*
X95925285Y16052286D01*
X94764143Y16052286D02*
X95199571Y16052286D01*
X94981857Y16052286D02*
X94981857Y16814286D01*
X95054428Y16705429D01*
X95127000Y16632857D01*
X95199571Y16596571D01*
X94401286Y16052286D02*
X94256143Y16052286D01*
X94183571Y16088571D01*
X94147286Y16124857D01*
X94074714Y16233714D01*
X94038429Y16378857D01*
X94038429Y16669143D01*
X94074714Y16741714D01*
X94111000Y16778000D01*
X94183571Y16814286D01*
X94328714Y16814286D01*
X94401286Y16778000D01*
X94437571Y16741714D01*
X94473857Y16669143D01*
X94473857Y16487714D01*
X94437571Y16415143D01*
X94401286Y16378857D01*
X94328714Y16342571D01*
X94183571Y16342571D01*
X94111000Y16378857D01*
X94074714Y16415143D01*
X94038429Y16487714D01*
X8425285Y26052286D02*
X8425285Y26814286D01*
X8243857Y26814286D01*
X8135000Y26778000D01*
X8062428Y26705429D01*
X8026143Y26632857D01*
X7989857Y26487714D01*
X7989857Y26378857D01*
X8026143Y26233714D01*
X8062428Y26161143D01*
X8135000Y26088571D01*
X8243857Y26052286D01*
X8425285Y26052286D01*
X7264143Y26052286D02*
X7699571Y26052286D01*
X7481857Y26052286D02*
X7481857Y26814286D01*
X7554428Y26705429D01*
X7627000Y26632857D01*
X7699571Y26596571D01*
X6828714Y26487714D02*
X6901286Y26524000D01*
X6937571Y26560286D01*
X6973857Y26632857D01*
X6973857Y26669143D01*
X6937571Y26741714D01*
X6901286Y26778000D01*
X6828714Y26814286D01*
X6683571Y26814286D01*
X6611000Y26778000D01*
X6574714Y26741714D01*
X6538429Y26669143D01*
X6538429Y26632857D01*
X6574714Y26560286D01*
X6611000Y26524000D01*
X6683571Y26487714D01*
X6828714Y26487714D01*
X6901286Y26451429D01*
X6937571Y26415143D01*
X6973857Y26342571D01*
X6973857Y26197429D01*
X6937571Y26124857D01*
X6901286Y26088571D01*
X6828714Y26052286D01*
X6683571Y26052286D01*
X6611000Y26088571D01*
X6574714Y26124857D01*
X6538429Y26197429D01*
X6538429Y26342571D01*
X6574714Y26415143D01*
X6611000Y26451429D01*
X6683571Y26487714D01*
X18425285Y26052286D02*
X18425285Y26814286D01*
X18243857Y26814286D01*
X18135000Y26778000D01*
X18062428Y26705429D01*
X18026143Y26632857D01*
X17989857Y26487714D01*
X17989857Y26378857D01*
X18026143Y26233714D01*
X18062428Y26161143D01*
X18135000Y26088571D01*
X18243857Y26052286D01*
X18425285Y26052286D01*
X17264143Y26052286D02*
X17699571Y26052286D01*
X17481857Y26052286D02*
X17481857Y26814286D01*
X17554428Y26705429D01*
X17627000Y26632857D01*
X17699571Y26596571D01*
X17010143Y26814286D02*
X16502143Y26814286D01*
X16828714Y26052286D01*
X28425285Y26052286D02*
X28425285Y26814286D01*
X28243857Y26814286D01*
X28135000Y26778000D01*
X28062428Y26705429D01*
X28026143Y26632857D01*
X27989857Y26487714D01*
X27989857Y26378857D01*
X28026143Y26233714D01*
X28062428Y26161143D01*
X28135000Y26088571D01*
X28243857Y26052286D01*
X28425285Y26052286D01*
X27264143Y26052286D02*
X27699571Y26052286D01*
X27481857Y26052286D02*
X27481857Y26814286D01*
X27554428Y26705429D01*
X27627000Y26632857D01*
X27699571Y26596571D01*
X26611000Y26814286D02*
X26756143Y26814286D01*
X26828714Y26778000D01*
X26865000Y26741714D01*
X26937571Y26632857D01*
X26973857Y26487714D01*
X26973857Y26197429D01*
X26937571Y26124857D01*
X26901286Y26088571D01*
X26828714Y26052286D01*
X26683571Y26052286D01*
X26611000Y26088571D01*
X26574714Y26124857D01*
X26538429Y26197429D01*
X26538429Y26378857D01*
X26574714Y26451429D01*
X26611000Y26487714D01*
X26683571Y26524000D01*
X26828714Y26524000D01*
X26901286Y26487714D01*
X26937571Y26451429D01*
X26973857Y26378857D01*
X95925285Y26052286D02*
X95925285Y26814286D01*
X95743857Y26814286D01*
X95635000Y26778000D01*
X95562428Y26705429D01*
X95526143Y26632857D01*
X95489857Y26487714D01*
X95489857Y26378857D01*
X95526143Y26233714D01*
X95562428Y26161143D01*
X95635000Y26088571D01*
X95743857Y26052286D01*
X95925285Y26052286D01*
X94764143Y26052286D02*
X95199571Y26052286D01*
X94981857Y26052286D02*
X94981857Y26814286D01*
X95054428Y26705429D01*
X95127000Y26632857D01*
X95199571Y26596571D01*
X94292429Y26814286D02*
X94219857Y26814286D01*
X94147286Y26778000D01*
X94111000Y26741714D01*
X94074714Y26669143D01*
X94038429Y26524000D01*
X94038429Y26342571D01*
X94074714Y26197429D01*
X94111000Y26124857D01*
X94147286Y26088571D01*
X94219857Y26052286D01*
X94292429Y26052286D01*
X94365000Y26088571D01*
X94401286Y26124857D01*
X94437571Y26197429D01*
X94473857Y26342571D01*
X94473857Y26524000D01*
X94437571Y26669143D01*
X94401286Y26741714D01*
X94365000Y26778000D01*
X94292429Y26814286D01*
X8062428Y36052286D02*
X8062428Y36814286D01*
X7881000Y36814286D01*
X7772143Y36778000D01*
X7699571Y36705429D01*
X7663286Y36632857D01*
X7627000Y36487714D01*
X7627000Y36378857D01*
X7663286Y36233714D01*
X7699571Y36161143D01*
X7772143Y36088571D01*
X7881000Y36052286D01*
X8062428Y36052286D01*
X7264143Y36052286D02*
X7119000Y36052286D01*
X7046428Y36088571D01*
X7010143Y36124857D01*
X6937571Y36233714D01*
X6901286Y36378857D01*
X6901286Y36669143D01*
X6937571Y36741714D01*
X6973857Y36778000D01*
X7046428Y36814286D01*
X7191571Y36814286D01*
X7264143Y36778000D01*
X7300428Y36741714D01*
X7336714Y36669143D01*
X7336714Y36487714D01*
X7300428Y36415143D01*
X7264143Y36378857D01*
X7191571Y36342571D01*
X7046428Y36342571D01*
X6973857Y36378857D01*
X6937571Y36415143D01*
X6901286Y36487714D01*
X18062428Y36052286D02*
X18062428Y36814286D01*
X17881000Y36814286D01*
X17772143Y36778000D01*
X17699571Y36705429D01*
X17663286Y36632857D01*
X17627000Y36487714D01*
X17627000Y36378857D01*
X17663286Y36233714D01*
X17699571Y36161143D01*
X17772143Y36088571D01*
X17881000Y36052286D01*
X18062428Y36052286D01*
X17191571Y36487714D02*
X17264143Y36524000D01*
X17300428Y36560286D01*
X17336714Y36632857D01*
X17336714Y36669143D01*
X17300428Y36741714D01*
X17264143Y36778000D01*
X17191571Y36814286D01*
X17046428Y36814286D01*
X16973857Y36778000D01*
X16937571Y36741714D01*
X16901286Y36669143D01*
X16901286Y36632857D01*
X16937571Y36560286D01*
X16973857Y36524000D01*
X17046428Y36487714D01*
X17191571Y36487714D01*
X17264143Y36451429D01*
X17300428Y36415143D01*
X17336714Y36342571D01*
X17336714Y36197429D01*
X17300428Y36124857D01*
X17264143Y36088571D01*
X17191571Y36052286D01*
X17046428Y36052286D01*
X16973857Y36088571D01*
X16937571Y36124857D01*
X16901286Y36197429D01*
X16901286Y36342571D01*
X16937571Y36415143D01*
X16973857Y36451429D01*
X17046428Y36487714D01*
X28062428Y36052286D02*
X28062428Y36814286D01*
X27881000Y36814286D01*
X27772143Y36778000D01*
X27699571Y36705429D01*
X27663286Y36632857D01*
X27627000Y36487714D01*
X27627000Y36378857D01*
X27663286Y36233714D01*
X27699571Y36161143D01*
X27772143Y36088571D01*
X27881000Y36052286D01*
X28062428Y36052286D01*
X27373000Y36814286D02*
X26865000Y36814286D01*
X27191571Y36052286D01*
X40925285Y16052286D02*
X40925285Y16814286D01*
X40743857Y16814286D01*
X40635000Y16778000D01*
X40562428Y16705429D01*
X40526143Y16632857D01*
X40489857Y16487714D01*
X40489857Y16378857D01*
X40526143Y16233714D01*
X40562428Y16161143D01*
X40635000Y16088571D01*
X40743857Y16052286D01*
X40925285Y16052286D01*
X40199571Y16741714D02*
X40163285Y16778000D01*
X40090714Y16814286D01*
X39909285Y16814286D01*
X39836714Y16778000D01*
X39800428Y16741714D01*
X39764143Y16669143D01*
X39764143Y16596571D01*
X39800428Y16487714D01*
X40235857Y16052286D01*
X39764143Y16052286D01*
X39111000Y16560286D02*
X39111000Y16052286D01*
X39292429Y16850571D02*
X39473857Y16306286D01*
X39002143Y16306286D01*
X50925285Y16052286D02*
X50925285Y16814286D01*
X50743857Y16814286D01*
X50635000Y16778000D01*
X50562428Y16705429D01*
X50526143Y16632857D01*
X50489857Y16487714D01*
X50489857Y16378857D01*
X50526143Y16233714D01*
X50562428Y16161143D01*
X50635000Y16088571D01*
X50743857Y16052286D01*
X50925285Y16052286D01*
X50199571Y16741714D02*
X50163285Y16778000D01*
X50090714Y16814286D01*
X49909285Y16814286D01*
X49836714Y16778000D01*
X49800428Y16741714D01*
X49764143Y16669143D01*
X49764143Y16596571D01*
X49800428Y16487714D01*
X50235857Y16052286D01*
X49764143Y16052286D01*
X49510143Y16814286D02*
X49038429Y16814286D01*
X49292429Y16524000D01*
X49183571Y16524000D01*
X49111000Y16487714D01*
X49074714Y16451429D01*
X49038429Y16378857D01*
X49038429Y16197429D01*
X49074714Y16124857D01*
X49111000Y16088571D01*
X49183571Y16052286D01*
X49401286Y16052286D01*
X49473857Y16088571D01*
X49510143Y16124857D01*
X40925285Y26052286D02*
X40925285Y26814286D01*
X40743857Y26814286D01*
X40635000Y26778000D01*
X40562428Y26705429D01*
X40526143Y26632857D01*
X40489857Y26487714D01*
X40489857Y26378857D01*
X40526143Y26233714D01*
X40562428Y26161143D01*
X40635000Y26088571D01*
X40743857Y26052286D01*
X40925285Y26052286D01*
X39764143Y26052286D02*
X40199571Y26052286D01*
X39981857Y26052286D02*
X39981857Y26814286D01*
X40054428Y26705429D01*
X40127000Y26632857D01*
X40199571Y26596571D01*
X39074714Y26814286D02*
X39437571Y26814286D01*
X39473857Y26451429D01*
X39437571Y26487714D01*
X39365000Y26524000D01*
X39183571Y26524000D01*
X39111000Y26487714D01*
X39074714Y26451429D01*
X39038429Y26378857D01*
X39038429Y26197429D01*
X39074714Y26124857D01*
X39111000Y26088571D01*
X39183571Y26052286D01*
X39365000Y26052286D01*
X39437571Y26088571D01*
X39473857Y26124857D01*
X50925285Y26052286D02*
X50925285Y26814286D01*
X50743857Y26814286D01*
X50635000Y26778000D01*
X50562428Y26705429D01*
X50526143Y26632857D01*
X50489857Y26487714D01*
X50489857Y26378857D01*
X50526143Y26233714D01*
X50562428Y26161143D01*
X50635000Y26088571D01*
X50743857Y26052286D01*
X50925285Y26052286D01*
X49764143Y26052286D02*
X50199571Y26052286D01*
X49981857Y26052286D02*
X49981857Y26814286D01*
X50054428Y26705429D01*
X50127000Y26632857D01*
X50199571Y26596571D01*
X49111000Y26560286D02*
X49111000Y26052286D01*
X49292429Y26850571D02*
X49473857Y26306286D01*
X49002143Y26306286D01*
X40562428Y36052286D02*
X40562428Y36814286D01*
X40381000Y36814286D01*
X40272143Y36778000D01*
X40199571Y36705429D01*
X40163286Y36632857D01*
X40127000Y36487714D01*
X40127000Y36378857D01*
X40163286Y36233714D01*
X40199571Y36161143D01*
X40272143Y36088571D01*
X40381000Y36052286D01*
X40562428Y36052286D01*
X39473857Y36814286D02*
X39619000Y36814286D01*
X39691571Y36778000D01*
X39727857Y36741714D01*
X39800428Y36632857D01*
X39836714Y36487714D01*
X39836714Y36197429D01*
X39800428Y36124857D01*
X39764143Y36088571D01*
X39691571Y36052286D01*
X39546428Y36052286D01*
X39473857Y36088571D01*
X39437571Y36124857D01*
X39401286Y36197429D01*
X39401286Y36378857D01*
X39437571Y36451429D01*
X39473857Y36487714D01*
X39546428Y36524000D01*
X39691571Y36524000D01*
X39764143Y36487714D01*
X39800428Y36451429D01*
X39836714Y36378857D01*
X50562428Y36052286D02*
X50562428Y36814286D01*
X50381000Y36814286D01*
X50272143Y36778000D01*
X50199571Y36705429D01*
X50163286Y36632857D01*
X50127000Y36487714D01*
X50127000Y36378857D01*
X50163286Y36233714D01*
X50199571Y36161143D01*
X50272143Y36088571D01*
X50381000Y36052286D01*
X50562428Y36052286D01*
X49437571Y36814286D02*
X49800428Y36814286D01*
X49836714Y36451429D01*
X49800428Y36487714D01*
X49727857Y36524000D01*
X49546428Y36524000D01*
X49473857Y36487714D01*
X49437571Y36451429D01*
X49401286Y36378857D01*
X49401286Y36197429D01*
X49437571Y36124857D01*
X49473857Y36088571D01*
X49546428Y36052286D01*
X49727857Y36052286D01*
X49800428Y36088571D01*
X49836714Y36124857D01*
X83062428Y36052286D02*
X83062428Y36814286D01*
X82881000Y36814286D01*
X82772143Y36778000D01*
X82699571Y36705429D01*
X82663286Y36632857D01*
X82627000Y36487714D01*
X82627000Y36378857D01*
X82663286Y36233714D01*
X82699571Y36161143D01*
X82772143Y36088571D01*
X82881000Y36052286D01*
X83062428Y36052286D01*
X82336714Y36741714D02*
X82300428Y36778000D01*
X82227857Y36814286D01*
X82046428Y36814286D01*
X81973857Y36778000D01*
X81937571Y36741714D01*
X81901286Y36669143D01*
X81901286Y36596571D01*
X81937571Y36487714D01*
X82373000Y36052286D01*
X81901286Y36052286D01*
X73062428Y36052286D02*
X73062428Y36814286D01*
X72881000Y36814286D01*
X72772143Y36778000D01*
X72699571Y36705429D01*
X72663286Y36632857D01*
X72627000Y36487714D01*
X72627000Y36378857D01*
X72663286Y36233714D01*
X72699571Y36161143D01*
X72772143Y36088571D01*
X72881000Y36052286D01*
X73062428Y36052286D01*
X72373000Y36814286D02*
X71901286Y36814286D01*
X72155286Y36524000D01*
X72046428Y36524000D01*
X71973857Y36487714D01*
X71937571Y36451429D01*
X71901286Y36378857D01*
X71901286Y36197429D01*
X71937571Y36124857D01*
X71973857Y36088571D01*
X72046428Y36052286D01*
X72264143Y36052286D01*
X72336714Y36088571D01*
X72373000Y36124857D01*
X63062428Y36052286D02*
X63062428Y36814286D01*
X62881000Y36814286D01*
X62772143Y36778000D01*
X62699571Y36705429D01*
X62663286Y36632857D01*
X62627000Y36487714D01*
X62627000Y36378857D01*
X62663286Y36233714D01*
X62699571Y36161143D01*
X62772143Y36088571D01*
X62881000Y36052286D01*
X63062428Y36052286D01*
X61973857Y36560286D02*
X61973857Y36052286D01*
X62155286Y36850571D02*
X62336714Y36306286D01*
X61865000Y36306286D01*
X83425285Y26052286D02*
X83425285Y26814286D01*
X83243857Y26814286D01*
X83135000Y26778000D01*
X83062428Y26705429D01*
X83026143Y26632857D01*
X82989857Y26487714D01*
X82989857Y26378857D01*
X83026143Y26233714D01*
X83062428Y26161143D01*
X83135000Y26088571D01*
X83243857Y26052286D01*
X83425285Y26052286D01*
X82264143Y26052286D02*
X82699571Y26052286D01*
X82481857Y26052286D02*
X82481857Y26814286D01*
X82554428Y26705429D01*
X82627000Y26632857D01*
X82699571Y26596571D01*
X81538429Y26052286D02*
X81973857Y26052286D01*
X81756143Y26052286D02*
X81756143Y26814286D01*
X81828714Y26705429D01*
X81901286Y26632857D01*
X81973857Y26596571D01*
X73425285Y26052286D02*
X73425285Y26814286D01*
X73243857Y26814286D01*
X73135000Y26778000D01*
X73062428Y26705429D01*
X73026143Y26632857D01*
X72989857Y26487714D01*
X72989857Y26378857D01*
X73026143Y26233714D01*
X73062428Y26161143D01*
X73135000Y26088571D01*
X73243857Y26052286D01*
X73425285Y26052286D01*
X72264143Y26052286D02*
X72699571Y26052286D01*
X72481857Y26052286D02*
X72481857Y26814286D01*
X72554428Y26705429D01*
X72627000Y26632857D01*
X72699571Y26596571D01*
X71973857Y26741714D02*
X71937571Y26778000D01*
X71865000Y26814286D01*
X71683571Y26814286D01*
X71611000Y26778000D01*
X71574714Y26741714D01*
X71538429Y26669143D01*
X71538429Y26596571D01*
X71574714Y26487714D01*
X72010143Y26052286D01*
X71538429Y26052286D01*
X63425285Y26052286D02*
X63425285Y26814286D01*
X63243857Y26814286D01*
X63135000Y26778000D01*
X63062428Y26705429D01*
X63026143Y26632857D01*
X62989857Y26487714D01*
X62989857Y26378857D01*
X63026143Y26233714D01*
X63062428Y26161143D01*
X63135000Y26088571D01*
X63243857Y26052286D01*
X63425285Y26052286D01*
X62264143Y26052286D02*
X62699571Y26052286D01*
X62481857Y26052286D02*
X62481857Y26814286D01*
X62554428Y26705429D01*
X62627000Y26632857D01*
X62699571Y26596571D01*
X62010143Y26814286D02*
X61538429Y26814286D01*
X61792429Y26524000D01*
X61683571Y26524000D01*
X61611000Y26487714D01*
X61574714Y26451429D01*
X61538429Y26378857D01*
X61538429Y26197429D01*
X61574714Y26124857D01*
X61611000Y26088571D01*
X61683571Y26052286D01*
X61901286Y26052286D01*
X61973857Y26088571D01*
X62010143Y26124857D01*
X83425285Y16052286D02*
X83425285Y16814286D01*
X83243857Y16814286D01*
X83135000Y16778000D01*
X83062428Y16705429D01*
X83026143Y16632857D01*
X82989857Y16487714D01*
X82989857Y16378857D01*
X83026143Y16233714D01*
X83062428Y16161143D01*
X83135000Y16088571D01*
X83243857Y16052286D01*
X83425285Y16052286D01*
X82699571Y16741714D02*
X82663285Y16778000D01*
X82590714Y16814286D01*
X82409285Y16814286D01*
X82336714Y16778000D01*
X82300428Y16741714D01*
X82264143Y16669143D01*
X82264143Y16596571D01*
X82300428Y16487714D01*
X82735857Y16052286D01*
X82264143Y16052286D01*
X81792429Y16814286D02*
X81719857Y16814286D01*
X81647286Y16778000D01*
X81611000Y16741714D01*
X81574714Y16669143D01*
X81538429Y16524000D01*
X81538429Y16342571D01*
X81574714Y16197429D01*
X81611000Y16124857D01*
X81647286Y16088571D01*
X81719857Y16052286D01*
X81792429Y16052286D01*
X81865000Y16088571D01*
X81901286Y16124857D01*
X81937571Y16197429D01*
X81973857Y16342571D01*
X81973857Y16524000D01*
X81937571Y16669143D01*
X81901286Y16741714D01*
X81865000Y16778000D01*
X81792429Y16814286D01*
X73425285Y16052286D02*
X73425285Y16814286D01*
X73243857Y16814286D01*
X73135000Y16778000D01*
X73062428Y16705429D01*
X73026143Y16632857D01*
X72989857Y16487714D01*
X72989857Y16378857D01*
X73026143Y16233714D01*
X73062428Y16161143D01*
X73135000Y16088571D01*
X73243857Y16052286D01*
X73425285Y16052286D01*
X72699571Y16741714D02*
X72663285Y16778000D01*
X72590714Y16814286D01*
X72409285Y16814286D01*
X72336714Y16778000D01*
X72300428Y16741714D01*
X72264143Y16669143D01*
X72264143Y16596571D01*
X72300428Y16487714D01*
X72735857Y16052286D01*
X72264143Y16052286D01*
X71538429Y16052286D02*
X71973857Y16052286D01*
X71756143Y16052286D02*
X71756143Y16814286D01*
X71828714Y16705429D01*
X71901286Y16632857D01*
X71973857Y16596571D01*
X63425285Y16052286D02*
X63425285Y16814286D01*
X63243857Y16814286D01*
X63135000Y16778000D01*
X63062428Y16705429D01*
X63026143Y16632857D01*
X62989857Y16487714D01*
X62989857Y16378857D01*
X63026143Y16233714D01*
X63062428Y16161143D01*
X63135000Y16088571D01*
X63243857Y16052286D01*
X63425285Y16052286D01*
X62699571Y16741714D02*
X62663285Y16778000D01*
X62590714Y16814286D01*
X62409285Y16814286D01*
X62336714Y16778000D01*
X62300428Y16741714D01*
X62264143Y16669143D01*
X62264143Y16596571D01*
X62300428Y16487714D01*
X62735857Y16052286D01*
X62264143Y16052286D01*
X61973857Y16741714D02*
X61937571Y16778000D01*
X61865000Y16814286D01*
X61683571Y16814286D01*
X61611000Y16778000D01*
X61574714Y16741714D01*
X61538429Y16669143D01*
X61538429Y16596571D01*
X61574714Y16487714D01*
X62010143Y16052286D01*
X61538429Y16052286D01*
M02*
