G04 #@! TF.FileFunction,Soldermask,Top*
%FSLAX46Y46*%
G04 Gerber Fmt 4.6, Leading zero omitted, Abs format (unit mm)*
G04 Created by KiCad (PCBNEW 4.0.0-stable) date 21/02/2016 17:37:39*
%MOMM*%
G01*
G04 APERTURE LIST*
%ADD10C,0.150000*%
%ADD11C,0.100000*%
%ADD12R,0.800100X0.800100*%
%ADD13R,1.500000X0.600000*%
%ADD14R,1.000000X1.250000*%
%ADD15C,4.500880*%
%ADD16R,2.199640X1.524000*%
%ADD17O,2.199640X1.524000*%
%ADD18R,1.524000X1.524000*%
%ADD19C,1.524000*%
%ADD20R,1.524000X1.998980*%
%ADD21O,1.524000X1.998980*%
%ADD22R,1.727200X2.032000*%
%ADD23O,1.727200X2.032000*%
%ADD24R,0.700000X1.300000*%
%ADD25R,1.300000X0.700000*%
%ADD26C,2.999740*%
%ADD27R,2.997200X2.997200*%
%ADD28R,2.499360X1.397000*%
%ADD29R,2.600000X0.500380*%
%ADD30R,4.000000X1.501140*%
%ADD31R,3.000000X1.501140*%
%ADD32C,0.899160*%
G04 APERTURE END LIST*
D10*
D11*
X100000000Y0D02*
X0Y0D01*
X100000000Y50000000D02*
X100000000Y0D01*
X0Y50000000D02*
X100000000Y50000000D01*
X0Y0D02*
X0Y50000000D01*
D12*
X45354240Y30160000D03*
X45354240Y28260000D03*
X47353220Y29210000D03*
D13*
X22401000Y10414000D03*
X22401000Y9144000D03*
X22401000Y7874000D03*
X22401000Y6604000D03*
X22401000Y5334000D03*
X22401000Y4064000D03*
X22401000Y2794000D03*
X22401000Y1524000D03*
X31701000Y1524000D03*
X31701000Y2794000D03*
X31701000Y4064000D03*
X31701000Y5334000D03*
X31701000Y6604000D03*
X31701000Y7874000D03*
X31701000Y9144000D03*
X31701000Y10414000D03*
D14*
X16000000Y6500000D03*
X14000000Y6500000D03*
X11500000Y37500000D03*
X13500000Y37500000D03*
D15*
X4000000Y46000000D03*
X4000000Y4000000D03*
X96000000Y46000000D03*
X96000000Y4000000D03*
D16*
X2540000Y21590000D03*
D17*
X2540000Y24130000D03*
X2540000Y26670000D03*
X2540000Y29210000D03*
X2540000Y31750000D03*
X2540000Y34290000D03*
D16*
X2540000Y40640000D03*
D17*
X2540000Y38100000D03*
D18*
X52705000Y43815000D03*
D19*
X52705000Y46355000D03*
X55245000Y43815000D03*
X55245000Y46355000D03*
X57785000Y43815000D03*
X57785000Y46355000D03*
X60325000Y43815000D03*
X60325000Y46355000D03*
X62865000Y43815000D03*
X62865000Y46355000D03*
X65405000Y43815000D03*
X65405000Y46355000D03*
D20*
X36195000Y43566080D03*
D21*
X36195000Y46603920D03*
X38735000Y43566080D03*
X38735000Y46603920D03*
X41275000Y43566080D03*
X41275000Y46603920D03*
D22*
X74295000Y46355000D03*
D23*
X76835000Y46355000D03*
X79375000Y46355000D03*
X81915000Y46355000D03*
X84455000Y46355000D03*
X86995000Y46355000D03*
D12*
X45354240Y39685000D03*
X45354240Y37785000D03*
X47353220Y38735000D03*
X38999240Y7450000D03*
X38999240Y5550000D03*
X40998220Y6500000D03*
D24*
X15950000Y10000000D03*
X14050000Y10000000D03*
X15950000Y12500000D03*
X14050000Y12500000D03*
X28450000Y12500000D03*
X26550000Y12500000D03*
X39050000Y12500000D03*
X40950000Y12500000D03*
X49050000Y12500000D03*
X50950000Y12500000D03*
X49050000Y10000000D03*
X50950000Y10000000D03*
X49050000Y7500000D03*
X50950000Y7500000D03*
X49050000Y5000000D03*
X50950000Y5000000D03*
X49050000Y2500000D03*
X50950000Y2500000D03*
X45405000Y19685000D03*
X47305000Y19685000D03*
X45405000Y17145000D03*
X47305000Y17145000D03*
X26550000Y27000000D03*
X28450000Y27000000D03*
X45405000Y34290000D03*
X47305000Y34290000D03*
X45405000Y24765000D03*
X47305000Y24765000D03*
X40950000Y10000000D03*
X39050000Y10000000D03*
D25*
X45720000Y43881000D03*
X45720000Y45781000D03*
D24*
X39050000Y2500000D03*
X40950000Y2500000D03*
D19*
X17526000Y17399000D03*
X20066000Y17399000D03*
X22606000Y17399000D03*
X14986000Y17399000D03*
X25146000Y17399000D03*
X27686000Y17399000D03*
X30226000Y17399000D03*
X32766000Y17399000D03*
X35306000Y17399000D03*
X37846000Y17399000D03*
X40386000Y17399000D03*
X42926000Y17399000D03*
X42926000Y21209000D03*
X42926000Y23749000D03*
X42926000Y26289000D03*
X42926000Y28829000D03*
X42926000Y32639000D03*
X40386000Y32639000D03*
X37846000Y32639000D03*
X35306000Y32639000D03*
X32766000Y32639000D03*
X30226000Y32639000D03*
X27686000Y32639000D03*
X25146000Y32639000D03*
X22606000Y32639000D03*
X20066000Y32639000D03*
X17526000Y32639000D03*
X14986000Y32639000D03*
X12446000Y18669000D03*
X12446000Y23749000D03*
X12446000Y26289000D03*
X12446000Y28829000D03*
X12446000Y31369000D03*
X36576000Y30099000D03*
X34036000Y30099000D03*
X26416000Y30099000D03*
X23876000Y30099000D03*
X12446000Y21209000D03*
D26*
X70000000Y30283200D03*
D27*
X70000000Y9785400D03*
D28*
X11991340Y42834560D03*
X11991340Y47335440D03*
X18491200Y42834560D03*
X18491200Y47335440D03*
X22786340Y42834560D03*
X22786340Y47335440D03*
X29286200Y42834560D03*
X29286200Y47335440D03*
D29*
X7245000Y14605000D03*
X7245000Y15405000D03*
X7245000Y13005000D03*
D30*
X2145000Y19305000D03*
D31*
X7145000Y19305000D03*
D30*
X2145000Y9905000D03*
D31*
X7145000Y9905000D03*
D29*
X7245000Y13805000D03*
D32*
X4843780Y16804640D03*
X4843780Y12405360D03*
D29*
X7245000Y16205000D03*
M02*
