G04 #@! TF.FileFunction,Copper,L2,Bot,Signal*
%FSLAX46Y46*%
G04 Gerber Fmt 4.6, Leading zero omitted, Abs format (unit mm)*
G04 Created by KiCad (PCBNEW 4.0.0-stable) date 21/02/2016 17:37:39*
%MOMM*%
G01*
G04 APERTURE LIST*
%ADD10C,0.150000*%
%ADD11C,0.100000*%
%ADD12C,4.500880*%
%ADD13R,2.199640X1.524000*%
%ADD14O,2.199640X1.524000*%
%ADD15R,1.524000X1.524000*%
%ADD16C,1.524000*%
%ADD17R,1.524000X1.998980*%
%ADD18O,1.524000X1.998980*%
%ADD19R,1.727200X2.032000*%
%ADD20O,1.727200X2.032000*%
%ADD21R,1.198880X1.198880*%
%ADD22C,2.999740*%
%ADD23R,2.997200X2.997200*%
%ADD24R,2.499360X1.397000*%
%ADD25C,0.899160*%
%ADD26C,0.889000*%
%ADD27C,0.254000*%
G04 APERTURE END LIST*
D10*
D11*
X100000000Y0D02*
X0Y0D01*
X100000000Y50000000D02*
X100000000Y0D01*
X0Y50000000D02*
X100000000Y50000000D01*
X0Y0D02*
X0Y50000000D01*
D12*
X4000000Y46000000D03*
X4000000Y4000000D03*
X96000000Y46000000D03*
X96000000Y4000000D03*
D13*
X2540000Y21590000D03*
D14*
X2540000Y24130000D03*
X2540000Y26670000D03*
X2540000Y29210000D03*
X2540000Y31750000D03*
X2540000Y34290000D03*
D13*
X2540000Y40640000D03*
D14*
X2540000Y38100000D03*
D15*
X52705000Y43815000D03*
D16*
X52705000Y46355000D03*
X55245000Y43815000D03*
X55245000Y46355000D03*
X57785000Y43815000D03*
X57785000Y46355000D03*
X60325000Y43815000D03*
X60325000Y46355000D03*
X62865000Y43815000D03*
X62865000Y46355000D03*
X65405000Y43815000D03*
X65405000Y46355000D03*
D17*
X36195000Y43566080D03*
D18*
X36195000Y46603920D03*
X38735000Y43566080D03*
X38735000Y46603920D03*
X41275000Y43566080D03*
X41275000Y46603920D03*
D19*
X74295000Y46355000D03*
D20*
X76835000Y46355000D03*
X79375000Y46355000D03*
X81915000Y46355000D03*
X84455000Y46355000D03*
X86995000Y46355000D03*
D16*
X17526000Y17399000D03*
X20066000Y17399000D03*
X22606000Y17399000D03*
X14986000Y17399000D03*
X25146000Y17399000D03*
X27686000Y17399000D03*
X30226000Y17399000D03*
X32766000Y17399000D03*
X35306000Y17399000D03*
X37846000Y17399000D03*
X40386000Y17399000D03*
X42926000Y17399000D03*
X42926000Y21209000D03*
X42926000Y23749000D03*
X42926000Y26289000D03*
X42926000Y28829000D03*
X42926000Y32639000D03*
X40386000Y32639000D03*
X37846000Y32639000D03*
X35306000Y32639000D03*
X32766000Y32639000D03*
X30226000Y32639000D03*
X27686000Y32639000D03*
X25146000Y32639000D03*
X22606000Y32639000D03*
X20066000Y32639000D03*
X17526000Y32639000D03*
X14986000Y32639000D03*
X12446000Y18669000D03*
X12446000Y23749000D03*
X12446000Y26289000D03*
X12446000Y28829000D03*
X12446000Y31369000D03*
X36576000Y30099000D03*
X34036000Y30099000D03*
X26416000Y30099000D03*
X23876000Y30099000D03*
X12446000Y21209000D03*
D21*
X93950980Y35000000D03*
X96049020Y35000000D03*
X6450980Y15000000D03*
X8549020Y15000000D03*
X16450980Y15000000D03*
X18549020Y15000000D03*
X26450980Y15000000D03*
X28549020Y15000000D03*
X93950980Y15000000D03*
X96049020Y15000000D03*
X6450980Y25000000D03*
X8549020Y25000000D03*
X16450980Y25000000D03*
X18549020Y25000000D03*
X26450980Y25000000D03*
X28549020Y25000000D03*
X93950980Y25000000D03*
X96049020Y25000000D03*
X6450980Y35000000D03*
X8549020Y35000000D03*
X16450980Y35000000D03*
X18549020Y35000000D03*
X26450980Y35000000D03*
X28549020Y35000000D03*
X38950980Y15000000D03*
X41049020Y15000000D03*
X48950980Y15000000D03*
X51049020Y15000000D03*
X38950980Y25000000D03*
X41049020Y25000000D03*
X48950980Y25000000D03*
X51049020Y25000000D03*
X38950980Y35000000D03*
X41049020Y35000000D03*
X48950980Y35000000D03*
X51049020Y35000000D03*
X81450980Y35000000D03*
X83549020Y35000000D03*
X71450980Y35000000D03*
X73549020Y35000000D03*
X61450980Y35000000D03*
X63549020Y35000000D03*
X81450980Y25000000D03*
X83549020Y25000000D03*
X71450980Y25000000D03*
X73549020Y25000000D03*
X61450980Y25000000D03*
X63549020Y25000000D03*
X81450980Y15000000D03*
X83549020Y15000000D03*
X71450980Y15000000D03*
X73549020Y15000000D03*
X61450980Y15000000D03*
X63549020Y15000000D03*
D22*
X70000000Y30283200D03*
D23*
X70000000Y9785400D03*
D24*
X11991340Y42834560D03*
X11991340Y47335440D03*
X18491200Y42834560D03*
X18491200Y47335440D03*
X22786340Y42834560D03*
X22786340Y47335440D03*
X29286200Y42834560D03*
X29286200Y47335440D03*
D25*
X4843780Y16804640D03*
X4843780Y12405360D03*
D26*
X45950300Y31440500D03*
X45325400Y14523400D03*
X80138800Y25453200D03*
X80138800Y34610500D03*
X57466100Y13395600D03*
X58645500Y14590200D03*
X50025800Y13744700D03*
X42111000Y12500000D03*
X47812400Y36839900D03*
X27443300Y13772100D03*
X15117300Y14870700D03*
X12491400Y10523300D03*
X27149000Y37071100D03*
X20950000Y37071100D03*
X51467400Y27768400D03*
X63413500Y23701700D03*
X50628600Y29830400D03*
X29632100Y23690900D03*
X18667000Y23690900D03*
X30423500Y7905000D03*
X33922400Y23635400D03*
X46302100Y12403500D03*
X44237500Y10290500D03*
X43211400Y8792000D03*
X42163800Y7275800D03*
X40797500Y5028200D03*
D27*
X36195000Y46355000D02*
X36195000Y45223100D01*
X35063200Y45223100D02*
X36195000Y45223100D01*
X30676000Y40835900D02*
X35063200Y45223100D01*
X29016000Y40835900D02*
X30676000Y40835900D01*
X22606000Y34425900D02*
X29016000Y40835900D01*
X22606000Y32639000D02*
X22606000Y34425900D01*
X30055000Y38818300D02*
X35051700Y43815000D01*
X27722900Y38818300D02*
X30055000Y38818300D01*
X26291900Y37387300D02*
X27722900Y38818300D01*
X26291900Y36742700D02*
X26291900Y37387300D01*
X37846000Y32639000D02*
X36693400Y31486400D01*
X36195000Y43815000D02*
X35051700Y43815000D01*
X27053800Y35980800D02*
X26291900Y36742700D01*
X27265900Y35980800D02*
X27053800Y35980800D01*
X27520300Y35726400D02*
X27265900Y35980800D01*
X27520300Y34290500D02*
X27520300Y35726400D01*
X28028400Y33782400D02*
X27520300Y34290500D01*
X33275300Y33782400D02*
X28028400Y33782400D01*
X34036000Y33021700D02*
X33275300Y33782400D01*
X34036000Y32260900D02*
X34036000Y33021700D01*
X34810500Y31486400D02*
X34036000Y32260900D01*
X36693400Y31486400D02*
X34810500Y31486400D01*
X45950300Y15148300D02*
X45325400Y14523400D01*
X45950300Y31440500D02*
X45950300Y15148300D01*
X38971800Y45223100D02*
X38735000Y45223100D01*
X39893500Y44301400D02*
X38971800Y45223100D01*
X39893500Y37904100D02*
X39893500Y44301400D01*
X37970200Y35980800D02*
X39893500Y37904100D01*
X37970200Y34188300D02*
X37970200Y35980800D01*
X39519500Y32639000D02*
X37970200Y34188300D01*
X40386000Y32639000D02*
X39519500Y32639000D01*
X38735000Y46355000D02*
X38735000Y45223100D01*
X35306000Y34605800D02*
X35306000Y32639000D01*
X38735000Y38034800D02*
X35306000Y34605800D01*
X38735000Y43815000D02*
X38735000Y38034800D01*
X26416000Y29956300D02*
X26416000Y30099000D01*
X35163300Y21209000D02*
X26416000Y29956300D01*
X42926000Y21209000D02*
X35163300Y21209000D01*
X20066000Y17399000D02*
X20066000Y32639000D01*
X90730000Y35000000D02*
X79375000Y46355000D01*
X93951000Y35000000D02*
X90730000Y35000000D01*
X93951000Y35000000D02*
X94931800Y35980800D01*
X94931800Y35980800D02*
X96816400Y35980800D01*
X96816400Y35980800D02*
X97032900Y35764300D01*
X97032900Y35764300D02*
X97032900Y24209200D01*
X97032900Y24209200D02*
X96843000Y24019300D01*
X96843000Y24019300D02*
X95268700Y24019300D01*
X95268700Y24019300D02*
X94931700Y24356300D01*
X93951000Y25000000D02*
X94931700Y25000000D01*
X94931700Y24356300D02*
X94931700Y25000000D01*
X95268700Y24019300D02*
X93951000Y22701600D01*
X93951000Y22701600D02*
X93951000Y15000000D01*
X80138800Y25331500D02*
X80138800Y25453200D01*
X80470300Y25000000D02*
X80138800Y25331500D01*
X80470300Y34942000D02*
X80138800Y34610500D01*
X80470300Y35000000D02*
X80470300Y34942000D01*
X81451000Y35000000D02*
X80470300Y35000000D01*
X81451000Y25000000D02*
X80960700Y25000000D01*
X80960700Y25000000D02*
X80470300Y25000000D01*
X80960700Y25000000D02*
X80960700Y16471000D01*
X80960700Y16471000D02*
X81451000Y15980700D01*
X81451000Y15000000D02*
X81451000Y15980700D01*
X56626500Y45196500D02*
X57785000Y46355000D01*
X56626500Y14235200D02*
X56626500Y45196500D01*
X57466100Y13395600D02*
X56626500Y14235200D01*
X61590600Y13395600D02*
X57466100Y13395600D01*
X62568200Y14373200D02*
X61590600Y13395600D01*
X62568200Y15795400D02*
X62568200Y14373200D01*
X65792100Y19019300D02*
X62568200Y15795400D01*
X65792100Y19019300D02*
X62568200Y22243200D01*
X66451000Y19019300D02*
X65792100Y19019300D01*
X70470300Y15000000D02*
X66451000Y19019300D01*
X62568200Y22243200D02*
X62568200Y25767400D01*
X62568200Y25767400D02*
X62781500Y25980700D01*
X62781500Y25980700D02*
X71451000Y25980700D01*
X71451000Y25980700D02*
X71907700Y26437400D01*
X71907700Y26437400D02*
X71907700Y33562600D01*
X71907700Y33562600D02*
X71451000Y34019300D01*
X71451000Y35000000D02*
X71451000Y34019300D01*
X71451000Y25000000D02*
X71451000Y25980700D01*
X71451000Y15000000D02*
X70470300Y15000000D01*
X60325000Y43815000D02*
X61451000Y42689000D01*
X61451000Y42689000D02*
X61451000Y35000000D01*
X61451000Y35000000D02*
X61451000Y25980700D01*
X61451000Y25000000D02*
X61451000Y25980700D01*
X61451000Y25000000D02*
X61451000Y15000000D01*
X59055300Y15000000D02*
X58645500Y14590200D01*
X61451000Y15000000D02*
X59055300Y15000000D01*
X59175500Y47504500D02*
X60325000Y46355000D01*
X57296100Y47504500D02*
X59175500Y47504500D01*
X56515000Y46723400D02*
X57296100Y47504500D01*
X56515000Y46008200D02*
X56515000Y46723400D01*
X55718400Y45211600D02*
X56515000Y46008200D01*
X54969500Y45211600D02*
X55718400Y45211600D01*
X53897300Y44139400D02*
X54969500Y45211600D01*
X53897300Y26090600D02*
X53897300Y44139400D01*
X51816000Y24009300D02*
X53897300Y26090600D01*
X48951000Y24009300D02*
X51816000Y24009300D01*
X48951000Y15980700D02*
X48951000Y24009300D01*
X48951000Y35000000D02*
X48951000Y25000000D01*
X48951000Y24009300D02*
X48951000Y25000000D01*
X48951000Y15000000D02*
X48951000Y15980700D01*
X49751200Y14019300D02*
X50025800Y13744700D01*
X48951000Y14019300D02*
X49751200Y14019300D01*
X48951000Y15000000D02*
X48951000Y14019300D01*
X41781000Y12500000D02*
X42111000Y12500000D01*
X47812400Y36839900D02*
X44099000Y33126500D01*
X44099000Y33126500D02*
X43206200Y34019300D01*
X44099000Y32033800D02*
X44099000Y33126500D01*
X39441400Y27376200D02*
X44099000Y32033800D01*
X43206200Y34019300D02*
X40268700Y34019300D01*
X40268700Y34019300D02*
X39931700Y34356300D01*
X39931700Y34356300D02*
X39931700Y35000000D01*
X38951000Y35000000D02*
X39931700Y35000000D01*
X38951000Y25000000D02*
X39441400Y25000000D01*
X39441400Y25000000D02*
X39441400Y27376200D01*
X39441400Y24811900D02*
X39441400Y25000000D01*
X41774300Y22479000D02*
X39441400Y24811900D01*
X43342300Y22479000D02*
X41774300Y22479000D01*
X44075800Y21745500D02*
X43342300Y22479000D01*
X44075800Y20702500D02*
X44075800Y21745500D01*
X43416100Y20042800D02*
X44075800Y20702500D01*
X35610500Y20042800D02*
X43416100Y20042800D01*
X29648800Y26004500D02*
X35610500Y20042800D01*
X27769200Y26004500D02*
X29648800Y26004500D01*
X27566100Y25801400D02*
X27769200Y26004500D01*
X27566100Y24244900D02*
X27566100Y25801400D01*
X34036000Y17775000D02*
X27566100Y24244900D01*
X34036000Y17041100D02*
X34036000Y17775000D01*
X36077100Y15000000D02*
X34036000Y17041100D01*
X38951000Y15000000D02*
X36077100Y15000000D01*
X39931700Y14349300D02*
X41781000Y12500000D01*
X39931700Y15000000D02*
X39931700Y14349300D01*
X38951000Y15000000D02*
X39931700Y15000000D01*
X62865000Y46355000D02*
X60655200Y48564800D01*
X60655200Y48564800D02*
X36273900Y48564800D01*
X36273900Y48564800D02*
X34902900Y47193800D01*
X34902900Y47193800D02*
X34902900Y45888400D01*
X34902900Y45888400D02*
X30610200Y41595700D01*
X30610200Y41595700D02*
X29012800Y41595700D01*
X29012800Y41595700D02*
X21450300Y34033200D01*
X21450300Y34033200D02*
X21450300Y32175000D01*
X21450300Y32175000D02*
X22303400Y31321900D01*
X22303400Y31321900D02*
X24541500Y31321900D01*
X24541500Y31321900D02*
X25037200Y30826200D01*
X25037200Y30826200D02*
X26451000Y32240000D01*
X25037200Y27394500D02*
X25037200Y30826200D01*
X26451000Y25980700D02*
X25037200Y27394500D01*
X26451000Y32240000D02*
X26451000Y35000000D01*
X26451000Y25000000D02*
X26451000Y25980700D01*
X26451000Y15000000D02*
X26451000Y25000000D01*
X26451000Y14509700D02*
X26451000Y15000000D01*
X27196100Y14019300D02*
X27443300Y13772100D01*
X26451000Y14019300D02*
X27196100Y14019300D01*
X26451000Y14509700D02*
X26451000Y14019300D01*
X64135000Y45085000D02*
X65405000Y43815000D01*
X64135000Y46701800D02*
X64135000Y45085000D01*
X61763700Y49073100D02*
X64135000Y46701800D01*
X35680700Y49073100D02*
X61763700Y49073100D01*
X31539800Y44932200D02*
X35680700Y49073100D01*
X28847000Y44932200D02*
X31539800Y44932200D01*
X23395000Y39480200D02*
X28847000Y44932200D01*
X23395000Y38066200D02*
X23395000Y39480200D01*
X19229600Y33900800D02*
X23395000Y38066200D01*
X18714600Y33900800D02*
X19229600Y33900800D01*
X19529800Y25829000D02*
X18547600Y26811200D01*
X19529800Y21228000D02*
X19529800Y25829000D01*
X18669400Y20367600D02*
X19529800Y21228000D01*
X18714600Y26978200D02*
X18547600Y26811200D01*
X18714600Y33900800D02*
X18714600Y26978200D01*
X18547600Y26811200D02*
X17431700Y25695300D01*
X17431700Y25695300D02*
X17431700Y25000000D01*
X15341000Y14870700D02*
X15470300Y15000000D01*
X15117300Y14870700D02*
X15341000Y14870700D01*
X18714600Y33900800D02*
X17550200Y33900800D01*
X17550200Y33900800D02*
X16451000Y35000000D01*
X16451000Y25000000D02*
X17431700Y25000000D01*
X18669400Y16925400D02*
X18669400Y20367600D01*
X17431700Y15687700D02*
X18669400Y16925400D01*
X15888700Y15000000D02*
X15470300Y15000000D01*
X15888700Y15000000D02*
X16451000Y15000000D01*
X16451000Y15000000D02*
X17431700Y15000000D01*
X17431700Y15000000D02*
X17431700Y15687700D01*
X62178500Y49581500D02*
X65405000Y46355000D01*
X34650700Y49581500D02*
X62178500Y49581500D01*
X30917300Y45848100D02*
X34650700Y49581500D01*
X17647200Y45848100D02*
X30917300Y45848100D01*
X7431700Y35632600D02*
X17647200Y45848100D01*
X7431700Y35000000D02*
X7431700Y35632600D01*
X6451000Y35000000D02*
X7431700Y35000000D01*
X6451000Y25000000D02*
X6451000Y35000000D01*
X5960700Y35000000D02*
X5470300Y35000000D01*
X5470300Y35000000D02*
X5022200Y35448100D01*
X5960700Y35000000D02*
X6451000Y35000000D01*
X5022200Y35448100D02*
X1708800Y35448100D01*
X1708800Y35448100D02*
X512700Y34252000D01*
X512700Y34252000D02*
X512700Y20493600D01*
X512700Y20493600D02*
X3222200Y17784100D01*
X3222200Y17784100D02*
X5044900Y17784100D01*
X5044900Y17784100D02*
X6451000Y16378000D01*
X6451000Y16378000D02*
X6451000Y15000000D01*
X11264800Y10523300D02*
X12491400Y10523300D01*
X7431700Y14356400D02*
X11264800Y10523300D01*
X7431700Y15000000D02*
X7431700Y14356400D01*
X6451000Y15000000D02*
X7431700Y15000000D01*
X10360300Y45980000D02*
X10360300Y47335400D01*
X3623600Y39243300D02*
X10360300Y45980000D01*
X2540000Y39243300D02*
X3623600Y39243300D01*
X2540000Y38100000D02*
X2540000Y39243300D01*
X11991300Y47335400D02*
X10360300Y47335400D01*
X11684400Y19430600D02*
X12446000Y18669000D01*
X3556100Y19430600D02*
X11684400Y19430600D01*
X2540000Y20446700D02*
X3556100Y19430600D01*
X2540000Y21590000D02*
X2540000Y20446700D01*
X83549000Y35000000D02*
X84529700Y35000000D01*
X83549000Y35000000D02*
X82568300Y35000000D01*
X84529700Y35000000D02*
X85510400Y34019300D01*
X85510400Y34019300D02*
X94731200Y34019300D01*
X94731200Y34019300D02*
X95068300Y34356400D01*
X82568300Y35643600D02*
X82568300Y35000000D01*
X95068300Y34356400D02*
X95068300Y35000000D01*
X82231200Y35980700D02*
X82568300Y35643600D01*
X75510400Y35980700D02*
X82231200Y35980700D01*
X74529700Y35000000D02*
X75510400Y35980700D01*
X73549000Y35000000D02*
X74529700Y35000000D01*
X73549000Y35000000D02*
X72568300Y35000000D01*
X72568300Y35000000D02*
X72568300Y35643600D01*
X72568300Y35643600D02*
X72231200Y35980700D01*
X72231200Y35980700D02*
X63549000Y35980700D01*
X63549000Y35980700D02*
X63549000Y41310000D01*
X63549000Y41310000D02*
X61595000Y43264000D01*
X61595000Y43264000D02*
X61595000Y46771000D01*
X61595000Y46771000D02*
X60309600Y48056400D01*
X60309600Y48056400D02*
X55054000Y48056400D01*
X55054000Y48056400D02*
X53858600Y46861000D01*
X53858600Y46861000D02*
X53172200Y47547400D01*
X53858600Y45826000D02*
X53858600Y46861000D01*
X52990900Y44958300D02*
X53858600Y45826000D01*
X52705000Y44958300D02*
X52990900Y44958300D01*
X53172200Y47547400D02*
X42644100Y47547400D01*
X42644100Y47547400D02*
X42439000Y47342300D01*
X41751500Y48029800D02*
X42439000Y47342300D01*
X42439000Y47342300D02*
X42439000Y37243600D01*
X42439000Y37243600D02*
X41049000Y35853600D01*
X38258400Y48029800D02*
X41751500Y48029800D01*
X37338400Y47109800D02*
X38258400Y48029800D01*
X37338400Y42399500D02*
X37338400Y47109800D01*
X30919600Y35980700D02*
X37338400Y42399500D01*
X28549000Y35980700D02*
X30919600Y35980700D01*
X28239400Y35980700D02*
X27149000Y37071100D01*
X28549000Y35980700D02*
X28239400Y35980700D01*
X19529700Y35650800D02*
X20950000Y37071100D01*
X19529700Y35000000D02*
X19529700Y35650800D01*
X63549000Y35000000D02*
X63549000Y35980700D01*
X41049000Y35000000D02*
X41049000Y35853600D01*
X51049000Y35000000D02*
X51539300Y35000000D01*
X51467400Y34928100D02*
X51467400Y27768400D01*
X51539300Y35000000D02*
X51467400Y34928100D01*
X52705000Y36165700D02*
X51539300Y35000000D01*
X28549000Y35000000D02*
X28549000Y35980700D01*
X18549000Y35000000D02*
X17568300Y35000000D01*
X18549000Y35000000D02*
X19529700Y35000000D01*
X17568300Y35000000D02*
X17568300Y35643600D01*
X17568300Y35643600D02*
X17231200Y35980700D01*
X10510400Y35980700D02*
X9529700Y35000000D01*
X17231200Y35980700D02*
X10510400Y35980700D01*
X8549000Y35000000D02*
X9529700Y35000000D01*
X96049000Y35000000D02*
X95068300Y35000000D01*
X52705000Y43815000D02*
X52705000Y36165700D01*
X52705000Y43815000D02*
X52705000Y44958300D01*
X83549000Y25000000D02*
X84529700Y25000000D01*
X83549000Y25000000D02*
X82568300Y25000000D01*
X82568300Y25643600D02*
X82568300Y25000000D01*
X84529700Y25000000D02*
X85510500Y25980800D01*
X81884700Y26327200D02*
X82568300Y25643600D01*
X85510500Y25980800D02*
X95068200Y25980800D01*
X75856900Y26327200D02*
X81884700Y26327200D01*
X74529700Y25000000D02*
X75856900Y26327200D01*
X73549000Y25000000D02*
X74529700Y25000000D01*
X73549000Y25000000D02*
X72568300Y25000000D01*
X72568300Y24356400D02*
X72568300Y25000000D01*
X72199500Y23987600D02*
X72568300Y24356400D01*
X64039400Y23987600D02*
X72199500Y23987600D01*
X63699400Y23987600D02*
X64039400Y23987600D01*
X63413500Y23701700D02*
X63699400Y23987600D01*
X50628600Y26401100D02*
X50628600Y29830400D01*
X51049000Y25980700D02*
X50628600Y26401100D01*
X50628600Y29830400D02*
X50068200Y30390800D01*
X50068200Y30390800D02*
X50068200Y35980800D01*
X48185400Y35980800D02*
X50068200Y35980800D01*
X50068200Y35980800D02*
X50068200Y43718200D01*
X44856200Y32651600D02*
X48185400Y35980800D01*
X44856200Y25787000D02*
X44856200Y32651600D01*
X44069200Y25000000D02*
X44856200Y25787000D01*
X44584100Y24485100D02*
X44069200Y25000000D01*
X44584100Y20492000D02*
X44584100Y24485100D01*
X43626600Y19534500D02*
X44584100Y20492000D01*
X33788500Y19534500D02*
X43626600Y19534500D01*
X29632100Y23690900D02*
X33788500Y19534500D01*
X29632100Y24407300D02*
X29632100Y23690900D01*
X14510100Y24019300D02*
X18549000Y24019300D01*
X18549000Y24019300D02*
X18549000Y23808900D01*
X13529400Y25000000D02*
X14510100Y24019300D01*
X18549000Y23808900D02*
X18667000Y23690900D01*
X63549000Y25000000D02*
X64039400Y25000000D01*
X64039400Y25000000D02*
X64039400Y23987600D01*
X44069200Y25000000D02*
X41049000Y25000000D01*
X51049000Y25000000D02*
X51049000Y25980700D01*
X28549000Y25000000D02*
X29039400Y25000000D01*
X29039400Y25000000D02*
X29632100Y24407300D01*
X18549000Y25000000D02*
X18549000Y24019300D01*
X8549000Y25000000D02*
X13529400Y25000000D01*
X95068200Y25980800D02*
X96049000Y25000000D01*
X50068200Y43718200D02*
X52705000Y46355000D01*
X83549000Y15000000D02*
X84529700Y15000000D01*
X83549000Y15000000D02*
X82568300Y15000000D01*
X82568300Y14356400D02*
X82568300Y15000000D01*
X82231200Y14019300D02*
X82568300Y14356400D01*
X75510400Y14019300D02*
X82231200Y14019300D01*
X74529700Y15000000D02*
X75510400Y14019300D01*
X85510400Y14019300D02*
X84529700Y15000000D01*
X94731200Y14019300D02*
X85510400Y14019300D01*
X95068300Y14356400D02*
X94731200Y14019300D01*
X95068300Y15000000D02*
X95068300Y14356400D01*
X73549000Y15000000D02*
X74529700Y15000000D01*
X73549000Y15000000D02*
X72568300Y15000000D01*
X72568300Y14356400D02*
X72568300Y15000000D01*
X72231200Y14019300D02*
X72568300Y14356400D01*
X65020100Y14019300D02*
X72231200Y14019300D01*
X63549000Y15000000D02*
X64039400Y15000000D01*
X64039400Y15000000D02*
X65020100Y14019300D01*
X64039400Y15000000D02*
X61550300Y12510900D01*
X61550300Y12510900D02*
X52137000Y12510900D01*
X52137000Y12510900D02*
X51049000Y13598900D01*
X48964600Y11514500D02*
X51049000Y13598900D01*
X45515200Y11514500D02*
X48964600Y11514500D01*
X45515200Y11514500D02*
X45515200Y9421800D01*
X42029700Y15000000D02*
X45515200Y11514500D01*
X45515200Y9421800D02*
X41551600Y5458200D01*
X41551600Y5458200D02*
X40926700Y6083000D01*
X41640800Y5368900D02*
X41551600Y5458200D01*
X41640800Y4678500D02*
X41640800Y5368900D01*
X41116900Y4154600D02*
X41640800Y4678500D01*
X36837800Y4154600D02*
X41116900Y4154600D01*
X28744400Y12248000D02*
X36837800Y4154600D01*
X22281700Y12248000D02*
X28744400Y12248000D01*
X19529700Y15000000D02*
X22281700Y12248000D01*
X40926700Y6083000D02*
X39165500Y6083000D01*
X39165500Y6083000D02*
X30248500Y15000000D01*
X30248500Y15000000D02*
X29529700Y15000000D01*
X51049000Y15000000D02*
X51049000Y15980700D01*
X51049000Y13598900D02*
X51049000Y15000000D01*
X55245000Y20176700D02*
X51049000Y15980700D01*
X41049000Y15000000D02*
X42029700Y15000000D01*
X28549000Y15000000D02*
X29529700Y15000000D01*
X8549000Y15000000D02*
X9529700Y15000000D01*
X9529700Y15000000D02*
X10510400Y14019300D01*
X18549000Y15000000D02*
X19529700Y15000000D01*
X17568300Y14019300D02*
X18549000Y15000000D01*
X10510400Y14019300D02*
X17568300Y14019300D01*
X96049000Y15000000D02*
X95068300Y15000000D01*
X55245000Y43815000D02*
X55245000Y20176700D01*
X3148700Y28066700D02*
X2540000Y28066700D01*
X4721500Y26493900D02*
X3148700Y28066700D01*
X4721500Y24979600D02*
X4721500Y26493900D01*
X9762100Y19939000D02*
X4721500Y24979600D01*
X14986000Y19939000D02*
X9762100Y19939000D01*
X17526000Y17399000D02*
X14986000Y19939000D01*
X2540000Y29210000D02*
X2540000Y28066700D01*
X1931300Y30606700D02*
X2540000Y30606700D01*
X1058500Y29733900D02*
X1931300Y30606700D01*
X1058500Y20666600D02*
X1058500Y29733900D01*
X3402000Y18323100D02*
X1058500Y20666600D01*
X6837200Y18323100D02*
X3402000Y18323100D01*
X7761300Y17399000D02*
X6837200Y18323100D01*
X14986000Y17399000D02*
X7761300Y17399000D01*
X2540000Y31750000D02*
X2540000Y30606700D01*
X70000000Y9785400D02*
X68120100Y9785400D01*
X34726800Y3601700D02*
X30423500Y7905000D01*
X61936400Y3601700D02*
X34726800Y3601700D01*
X68120100Y9785400D02*
X61936400Y3601700D01*
X42926000Y32639000D02*
X33922400Y23635400D01*
X46217900Y12403500D02*
X46302100Y12403500D01*
X41656000Y16965400D02*
X46217900Y12403500D01*
X41656000Y17752200D02*
X41656000Y16965400D01*
X40861200Y18547000D02*
X41656000Y17752200D01*
X36454000Y18547000D02*
X40861200Y18547000D01*
X35306000Y17399000D02*
X36454000Y18547000D01*
X39874500Y10290500D02*
X44237500Y10290500D01*
X32766000Y17399000D02*
X39874500Y10290500D01*
X38833000Y8792000D02*
X30226000Y17399000D01*
X43211400Y8792000D02*
X38833000Y8792000D01*
X38691700Y7275800D02*
X42163800Y7275800D01*
X28568500Y17399000D02*
X38691700Y7275800D01*
X27686000Y17399000D02*
X28568500Y17399000D01*
X39501400Y5028200D02*
X40797500Y5028200D01*
X31583400Y12946200D02*
X39501400Y5028200D01*
X26738900Y12946200D02*
X31583400Y12946200D01*
X25146000Y14539100D02*
X26738900Y12946200D01*
X25146000Y17399000D02*
X25146000Y14539100D01*
M02*
