G04 #@! TF.FileFunction,Soldermask,Bot*
%FSLAX46Y46*%
G04 Gerber Fmt 4.6, Leading zero omitted, Abs format (unit mm)*
G04 Created by KiCad (PCBNEW 4.0.0-stable) date 21/02/2016 17:37:39*
%MOMM*%
G01*
G04 APERTURE LIST*
%ADD10C,0.150000*%
%ADD11C,0.100000*%
%ADD12C,4.500880*%
%ADD13R,2.199640X1.524000*%
%ADD14O,2.199640X1.524000*%
%ADD15R,1.524000X1.524000*%
%ADD16C,1.524000*%
%ADD17R,1.524000X1.998980*%
%ADD18O,1.524000X1.998980*%
%ADD19R,1.727200X2.032000*%
%ADD20O,1.727200X2.032000*%
%ADD21R,1.198880X1.198880*%
%ADD22C,2.999740*%
%ADD23R,2.997200X2.997200*%
%ADD24R,2.499360X1.397000*%
%ADD25C,0.899160*%
G04 APERTURE END LIST*
D10*
D11*
X100000000Y0D02*
X0Y0D01*
X100000000Y50000000D02*
X100000000Y0D01*
X0Y50000000D02*
X100000000Y50000000D01*
X0Y0D02*
X0Y50000000D01*
D12*
X4000000Y46000000D03*
X4000000Y4000000D03*
X96000000Y46000000D03*
X96000000Y4000000D03*
D13*
X2540000Y21590000D03*
D14*
X2540000Y24130000D03*
X2540000Y26670000D03*
X2540000Y29210000D03*
X2540000Y31750000D03*
X2540000Y34290000D03*
D13*
X2540000Y40640000D03*
D14*
X2540000Y38100000D03*
D15*
X52705000Y43815000D03*
D16*
X52705000Y46355000D03*
X55245000Y43815000D03*
X55245000Y46355000D03*
X57785000Y43815000D03*
X57785000Y46355000D03*
X60325000Y43815000D03*
X60325000Y46355000D03*
X62865000Y43815000D03*
X62865000Y46355000D03*
X65405000Y43815000D03*
X65405000Y46355000D03*
D17*
X36195000Y43566080D03*
D18*
X36195000Y46603920D03*
X38735000Y43566080D03*
X38735000Y46603920D03*
X41275000Y43566080D03*
X41275000Y46603920D03*
D19*
X74295000Y46355000D03*
D20*
X76835000Y46355000D03*
X79375000Y46355000D03*
X81915000Y46355000D03*
X84455000Y46355000D03*
X86995000Y46355000D03*
D16*
X17526000Y17399000D03*
X20066000Y17399000D03*
X22606000Y17399000D03*
X14986000Y17399000D03*
X25146000Y17399000D03*
X27686000Y17399000D03*
X30226000Y17399000D03*
X32766000Y17399000D03*
X35306000Y17399000D03*
X37846000Y17399000D03*
X40386000Y17399000D03*
X42926000Y17399000D03*
X42926000Y21209000D03*
X42926000Y23749000D03*
X42926000Y26289000D03*
X42926000Y28829000D03*
X42926000Y32639000D03*
X40386000Y32639000D03*
X37846000Y32639000D03*
X35306000Y32639000D03*
X32766000Y32639000D03*
X30226000Y32639000D03*
X27686000Y32639000D03*
X25146000Y32639000D03*
X22606000Y32639000D03*
X20066000Y32639000D03*
X17526000Y32639000D03*
X14986000Y32639000D03*
X12446000Y18669000D03*
X12446000Y23749000D03*
X12446000Y26289000D03*
X12446000Y28829000D03*
X12446000Y31369000D03*
X36576000Y30099000D03*
X34036000Y30099000D03*
X26416000Y30099000D03*
X23876000Y30099000D03*
X12446000Y21209000D03*
D21*
X93950980Y35000000D03*
X96049020Y35000000D03*
X6450980Y15000000D03*
X8549020Y15000000D03*
X16450980Y15000000D03*
X18549020Y15000000D03*
X26450980Y15000000D03*
X28549020Y15000000D03*
X93950980Y15000000D03*
X96049020Y15000000D03*
X6450980Y25000000D03*
X8549020Y25000000D03*
X16450980Y25000000D03*
X18549020Y25000000D03*
X26450980Y25000000D03*
X28549020Y25000000D03*
X93950980Y25000000D03*
X96049020Y25000000D03*
X6450980Y35000000D03*
X8549020Y35000000D03*
X16450980Y35000000D03*
X18549020Y35000000D03*
X26450980Y35000000D03*
X28549020Y35000000D03*
X38950980Y15000000D03*
X41049020Y15000000D03*
X48950980Y15000000D03*
X51049020Y15000000D03*
X38950980Y25000000D03*
X41049020Y25000000D03*
X48950980Y25000000D03*
X51049020Y25000000D03*
X38950980Y35000000D03*
X41049020Y35000000D03*
X48950980Y35000000D03*
X51049020Y35000000D03*
X81450980Y35000000D03*
X83549020Y35000000D03*
X71450980Y35000000D03*
X73549020Y35000000D03*
X61450980Y35000000D03*
X63549020Y35000000D03*
X81450980Y25000000D03*
X83549020Y25000000D03*
X71450980Y25000000D03*
X73549020Y25000000D03*
X61450980Y25000000D03*
X63549020Y25000000D03*
X81450980Y15000000D03*
X83549020Y15000000D03*
X71450980Y15000000D03*
X73549020Y15000000D03*
X61450980Y15000000D03*
X63549020Y15000000D03*
D22*
X70000000Y30283200D03*
D23*
X70000000Y9785400D03*
D24*
X11991340Y42834560D03*
X11991340Y47335440D03*
X18491200Y42834560D03*
X18491200Y47335440D03*
X22786340Y42834560D03*
X22786340Y47335440D03*
X29286200Y42834560D03*
X29286200Y47335440D03*
D25*
X4843780Y16804640D03*
X4843780Y12405360D03*
M02*
